<svg width="28" height="28" viewBox="0 0 28 28" fill="none" xmlns="http://www.w3.org/2000/svg">
<rect width="28" height="28" rx="14" fill="#2B79FF" fill-opacity="0.1"/>
<path fill-rule="evenodd" clip-rule="evenodd" d="M14.5881 8.0289C13.2067 7.89284 11.8208 8.23999 10.6666 9.0112C9.51239 9.7824 8.66131 10.9299 8.25836 12.2583C7.85541 13.5867 7.92551 15.0136 8.45672 16.2961C8.98794 17.5786 9.9474 18.6372 11.1716 19.2915C12.3958 19.9459 13.8091 20.1555 15.1705 19.8847C16.532 19.6139 17.7574 18.8794 18.6381 17.8064C19.5187 16.7333 20 15.3881 20 14C20 13.4477 20.4477 13 21 13C21.5523 13 22 13.4477 22 14C22 15.8509 21.3582 17.6444 20.1841 19.0752C19.0099 20.5059 17.376 21.4852 15.5607 21.8463C13.7454 22.2074 11.8611 21.9279 10.2288 21.0554C8.59653 20.1829 7.31725 18.7714 6.60897 17.0615C5.90068 15.3515 5.80721 13.4489 6.34448 11.6777C6.88175 9.90659 8.01652 8.37653 9.55544 7.34826C11.0944 6.31998 12.9422 5.85712 14.7841 6.03853C16.6261 6.21995 18.3481 7.03441 19.6569 8.34316C20.0474 8.73368 20.0474 9.36685 19.6569 9.75737C19.2663 10.1479 18.6332 10.1479 18.2426 9.75737C17.2611 8.77581 15.9696 8.16496 14.5881 8.0289Z" fill="#1F71FF"/>
</svg>
