<svg width="28" height="28" viewBox="0 0 28 28" fill="none" xmlns="http://www.w3.org/2000/svg">
<rect width="28" height="28" rx="14" fill="#2B79FF" fill-opacity="0.1"/>
<path opacity="0.2" d="M21 14C21 14.9193 20.8189 15.8295 20.4672 16.6788C20.1154 17.5281 19.5998 18.2997 18.9497 18.9497C18.2997 19.5998 17.5281 20.1154 16.6788 20.4672C15.8295 20.8189 14.9193 21 14 21C13.0807 21 12.1705 20.8189 11.3212 20.4672C10.4719 20.1154 9.70026 19.5998 9.05025 18.9497C8.40024 18.2997 7.88463 17.5281 7.53284 16.6788C7.18106 15.8295 7 14.9193 7 14C7 13.0807 7.18106 12.1705 7.53284 11.3212C7.88463 10.4719 8.40024 9.70026 9.05025 9.05025C9.70026 8.40024 10.4719 7.88463 11.3212 7.53284C12.1705 7.18106 13.0807 7 14 7C14.9193 7 15.8295 7.18106 16.6788 7.53284C17.5281 7.88463 18.2997 8.40024 18.9497 9.05025C19.5998 9.70026 20.1154 10.4719 20.4672 11.3212C20.8189 12.1705 21 13.0807 21 14L21 14Z" stroke="#1F71FF" stroke-width="2" stroke-linecap="round"/>
<path fill-rule="evenodd" clip-rule="evenodd" d="M12.9999 7C12.9999 6.44772 13.4476 6 13.9999 6C15.3257 6 16.6307 6.3295 17.7976 6.95888C18.9645 7.58826 19.9567 8.49778 20.685 9.60566C21.4132 10.7135 21.8547 11.9851 21.9698 13.3059C22.0848 14.6267 21.8698 15.9553 21.344 17.1725C20.8182 18.3896 19.9982 19.4569 18.9577 20.2785C17.9172 21.1002 16.6888 21.6503 15.383 21.8795C14.0771 22.1087 12.7348 22.0098 11.4767 21.5917C10.2185 21.1735 9.08406 20.4492 8.17524 19.4839C7.79665 19.0818 7.81573 18.4489 8.21784 18.0703C8.61995 17.6917 9.25283 17.7108 9.63141 18.1129C10.313 18.8369 11.1639 19.3801 12.1075 19.6937C13.0511 20.0074 14.0578 20.0816 15.0372 19.9097C16.0166 19.7378 16.9379 19.3251 17.7183 18.7089C18.4987 18.0927 19.1137 17.2922 19.508 16.3793C19.9023 15.4665 20.0636 14.47 19.9773 13.4794C19.891 12.4888 19.5599 11.5352 19.0137 10.7042C18.4675 9.87334 17.7234 9.1912 16.8482 8.71916C15.973 8.24713 14.9943 8 13.9999 8C13.4476 8 12.9999 7.55228 12.9999 7Z" fill="#1F71FF"/>
</svg>
