<svg width="16" height="16" viewBox="0 0 16 16" fill="none" xmlns="http://www.w3.org/2000/svg">
<path fill-rule="evenodd" clip-rule="evenodd" d="M2.14618 12.8534C0.584085 11.2913 0.584085 8.75861 2.14618 7.19652L4.86586 4.47684C5.70697 3.63573 7.07067 3.63573 7.91178 4.47684C8.75289 5.31794 8.75289 6.68165 7.91178 7.52276L5.1921 10.2424L4.485 9.53533L7.20468 6.81565C7.65526 6.36507 7.65526 5.63453 7.20468 5.18394C6.75409 4.73336 6.02355 4.73336 5.57297 5.18394L2.85329 7.90362C1.68172 9.07519 1.68172 10.9747 2.85329 12.1463C4.02486 13.3178 5.92436 13.3178 7.09593 12.1463L12.0457 7.19652C13.2172 6.02494 13.2172 4.12545 12.0457 2.95387C10.8741 1.7823 8.97461 1.7823 7.80304 2.95387L7.09593 2.24677C8.65803 0.684671 11.1907 0.684671 12.7528 2.24677C14.3149 3.80887 14.3149 6.34153 12.7528 7.90362L7.80304 12.8534C6.24094 14.4155 3.70828 14.4155 2.14618 12.8534Z" fill="#151618" fill-opacity="0.48"/>
</svg>
