<svg width="13" height="15" viewBox="0 0 13 15" fill="none" xmlns="http://www.w3.org/2000/svg">
<path fill-rule="evenodd" clip-rule="evenodd" d="M4.5 0H4.19098L4.05279 0.276393L3.19098 2H0V3H1.03993L2.00173 14.5415L2.03993 15H2.5H10.5H10.9601L10.9983 14.5415L11.9601 3H13V2H9.80902L8.94721 0.276393L8.80902 0H8.5H4.5ZM8.69098 2H4.30902L4.80902 1H8.19098L8.69098 2ZM2.96007 14L2.0434 3H3.5H9.5H10.9566L10.0399 14H2.96007ZM7.52438 13H8.52562L8.97562 4H7.97438L7.52438 13ZM5.47562 13L5.02562 4H4.02438L4.47438 13H5.47562Z" fill="#151618" fill-opacity="0.48"/>
</svg>
