<svg width="84" height="32" viewBox="0 0 84 32" fill="none" xmlns="http://www.w3.org/2000/svg">
<g clip-path="url(#clip0)">
<path d="M0 9.51852C0 8.12758 1.12758 7 2.51852 7H81.4815C82.8724 7 84 8.12758 84 9.51852V25H0V9.51852Z" fill="#0F2243" fill-opacity="0.05"/>
<g clip-path="url(#clip1)">
<path d="M8.74442 14.7406V15.8396H7.19832V16.3549H8.74442V17.4994H6.81179V18.0223H8.74442V19.7503H9.29011V18.0223H11.2531V17.4994H9.29011V16.3549H10.8514V15.8396H9.29011V14.7406H11.0787V14.2253H9.92674C10.1693 13.8463 10.3815 13.4219 10.5709 12.952L10.048 12.7701C9.85853 13.2855 9.63874 13.7705 9.38863 14.2253H6.97853V14.7406H8.74442ZM7.87284 12.8004L7.41053 13.0202C7.68337 13.3688 7.93347 13.7705 8.16842 14.2101L8.61558 13.9827C8.38063 13.5583 8.13053 13.1642 7.87284 12.8004ZM5.24295 12.9141L4.864 13.2703C5.38695 13.6796 5.79621 14.0585 6.09179 14.4223L6.45558 14.0434C6.12968 13.6644 5.728 13.2931 5.24295 12.9141ZM4.31832 15.1272V15.6501H5.38695V18.6589C5.38695 18.7878 5.32632 18.9015 5.21263 19.0076L5.41726 19.4851C5.84926 19.1213 6.26611 18.7196 6.66021 18.2724L6.51621 17.7192C6.304 17.9617 6.10695 18.1815 5.91747 18.3785V15.1272H4.31832ZM14.2846 18.2269C13.6177 18.5149 12.8295 18.7423 11.9352 18.9091L12.0034 19.432C12.8598 19.2577 13.6177 19.0303 14.2846 18.7423V18.2269ZM13.0872 12.7928C12.8143 13.7099 12.496 14.5208 12.1246 15.2257C12.064 15.3166 11.9882 15.3848 11.9048 15.4227L12.0413 15.8926C12.4278 15.832 12.8143 15.7638 13.2008 15.688C12.8371 16.4156 12.5263 16.9309 12.2762 17.2341C12.208 17.2947 12.1322 17.3402 12.0413 17.3781L12.1777 17.8556C12.8446 17.7646 13.5495 17.6055 14.2771 17.3705V16.8855C13.7844 17.0522 13.2918 17.1811 12.7916 17.2796C13.2008 16.7263 13.7011 15.8017 14.3074 14.5133L13.8299 14.3389C13.6935 14.6497 13.5571 14.9377 13.4358 15.2105C13.1326 15.2712 12.8295 15.3242 12.5339 15.3697C12.8901 14.7785 13.2387 13.9827 13.5874 12.9899L13.0872 12.7928ZM16.3385 13.9221V16.0366H15.1107V13.9221H16.3385ZM16.3385 16.5293V18.7272H15.1107V16.5293H16.3385ZM16.8387 18.7272V16.5293H18.0589V18.7272H16.8387ZM16.8387 16.0366V13.9221H18.0589V16.0366H16.8387ZM18.0589 19.2274V19.72H18.5743V13.4143H14.6105V19.72H15.1107V19.2274H18.0589ZM26.1533 14.2707L24.5238 14.7709V12.808H23.9933V14.9377L22.8867 15.2787V13.5811H22.3562V15.4455L21.7196 15.6425V16.1731L22.3562 15.976V18.8636C22.3562 19.3638 22.6063 19.6215 23.1141 19.6215H25.5091C25.7895 19.6215 25.9941 19.5457 26.1229 19.4017C26.2745 19.2349 26.3731 18.7726 26.4261 18.0072L25.9183 17.848C25.888 18.4619 25.8274 18.8333 25.744 18.9545C25.6834 19.0531 25.5697 19.1061 25.4105 19.1061H23.2808C23.0156 19.1061 22.8867 18.9848 22.8867 18.7575V15.8168L23.9933 15.4834V18.1891H24.5238V15.3242L25.6303 14.9907C25.6227 16.0215 25.6 16.6202 25.5621 16.7794C25.5166 16.9461 25.3878 17.0295 25.1832 17.0295C25.0922 17.0295 24.9861 17.0219 24.8724 17.0143L25.024 17.5524H25.0695C25.6379 17.5524 25.9638 17.3857 26.0396 17.0674C26.1154 16.7339 26.1533 15.8017 26.1533 14.2707ZM21.8181 17.4918C21.5301 17.6282 21.2269 17.7571 20.9238 17.8707V15.3545H21.712V14.824H20.9238V12.8686H20.3857V14.824H19.5217V15.3545H20.3857V18.0526C20.0674 18.1436 19.7491 18.2269 19.4307 18.2952L19.5672 18.8408C20.3705 18.6286 21.1208 18.3558 21.8181 18.0299V17.4918ZM31.7617 12.8004V18.9242H30.6248V14.4072H30.0792V18.9242H29.2V19.4547H33.9747V18.9242H32.3149V15.7486H33.7549V15.2257H32.3149V12.8004H31.7617ZM29.5789 17.5524C29.2455 17.6737 28.9044 17.7798 28.5558 17.8783V15.2939H29.488V14.7634H28.5558V12.8383H27.9949V14.7634H27.0476V15.2939H27.9949V18.0299C27.6615 18.1057 27.3204 18.1739 26.9718 18.2345L27.1158 18.8105C27.9949 18.6286 28.8211 18.3937 29.5789 18.1208V17.5524Z" fill="#151618" fill-opacity="0.72"/>
</g>
<path fill-rule="evenodd" clip-rule="evenodd" d="M76.7791 17.1578L74.5916 14.9703L75.0335 14.5283L77 16.4948L78.9666 14.5283L79.4085 14.9703L77.221 17.1578L77 17.3787L76.7791 17.1578Z" fill="#151618" fill-opacity="0.48"/>
<rect x="-0.5" y="6.5" width="85" height="18" stroke="#0F2243" stroke-opacity="0.11"/>
</g>
<defs>
<clipPath id="clip0">
<path d="M0 9.51852C0 8.12758 1.12758 7 2.51852 7H81.4815C82.8724 7 84 8.12758 84 9.51852V25H0V9.51852Z" fill="white"/>
</clipPath>
<clipPath id="clip1">
<rect width="61.2963" height="12.5926" fill="white" transform="translate(4.03711 9.51855)"/>
</clipPath>
</defs>
</svg>
