<svg width="84" height="32" viewBox="0 0 84 32" fill="none" xmlns="http://www.w3.org/2000/svg">
<path fill-rule="evenodd" clip-rule="evenodd" d="M3.5625 14.0312C3.5625 12.9439 4.44394 12.0625 5.53125 12.0625H8.90625C9.99356 12.0625 10.875 12.9439 10.875 14.0312V17.4062C10.875 18.4936 9.99356 19.375 8.90625 19.375H5.53125C4.44394 19.375 3.5625 18.4936 3.5625 17.4062V14.0312ZM5.53125 12.625C4.7546 12.625 4.125 13.2546 4.125 14.0312V17.4062C4.125 18.1829 4.7546 18.8125 5.53125 18.8125H8.90625C9.6829 18.8125 10.3125 18.1829 10.3125 17.4062V14.0312C10.3125 13.2546 9.6829 12.625 8.90625 12.625H5.53125Z" fill="#151618" fill-opacity="0.48"/>
<path d="M15.3657 12.592L14.9737 12.968C15.5417 13.416 15.9897 13.84 16.3177 14.24L16.7177 13.84C16.3497 13.424 15.9017 13.008 15.3657 12.592ZM20.0137 19.656H21.8697L22.0137 19.08C21.7977 19.096 21.4937 19.104 21.1097 19.112C20.7097 19.12 20.3177 19.128 19.9337 19.128C19.3097 19.128 18.7817 19.12 18.3657 19.112C17.8857 19.096 17.5257 19.032 17.2777 18.92C17.0537 18.816 16.8457 18.648 16.6537 18.416C16.5897 18.344 16.5257 18.28 16.4617 18.232V15.24H14.7897V15.768H15.9257V18.2C15.5897 18.344 15.2137 18.76 14.7817 19.44L15.2137 19.832C15.6617 19.08 15.9817 18.712 16.1817 18.712C16.2777 18.712 16.3817 18.776 16.4937 18.912C16.7417 19.2 17.0217 19.4 17.3337 19.496C17.6537 19.584 18.0777 19.632 18.5897 19.64C19.1017 19.648 19.5817 19.656 20.0137 19.656ZM19.3257 12.44V13.464H18.2697C18.3657 13.208 18.4537 12.944 18.5337 12.664L17.9817 12.552C17.7897 13.272 17.4777 13.936 17.0457 14.536L17.5497 14.848C17.7257 14.592 17.8857 14.32 18.0297 14.016H19.3257V15.16H17.2457V15.72H18.5337C18.5097 16.216 18.4297 16.648 18.2937 17C18.0857 17.48 17.6617 17.88 17.0137 18.2L17.3897 18.656C18.1417 18.264 18.6297 17.76 18.8377 17.152C18.9737 16.752 19.0537 16.272 19.0777 15.72H19.8857V17.992C19.8857 18.168 19.9337 18.312 20.0457 18.424C20.1497 18.536 20.3017 18.592 20.5097 18.592H21.0857C21.3577 18.584 21.5497 18.52 21.6617 18.408C21.7817 18.28 21.8697 17.888 21.9177 17.224L21.4137 17.056C21.3817 17.624 21.3177 17.944 21.2217 18.016C21.1577 18.064 21.0777 18.088 20.9657 18.088H20.6777C20.5017 18.088 20.4217 18.008 20.4217 17.864V15.72H21.7657V15.16H19.8857V14.016H21.4857V13.464H19.8857V12.44H19.3257ZM23.7497 13.808V17.608C23.4137 17.704 23.0697 17.792 22.7097 17.88L22.8777 18.448C23.8057 18.2 24.6217 17.928 25.3257 17.632V17.056C25.0137 17.184 24.6857 17.304 24.3417 17.424V13.808H25.2697V13.248H22.7977V13.808H23.7497ZM25.5737 12.808V13.368H27.5257C27.4857 13.664 27.4297 13.952 27.3497 14.224H25.9417V17.984H26.4937V14.752H29.0617V17.984H29.6217V14.224H27.9257C27.9897 13.952 28.0457 13.672 28.0937 13.368H30.0057V12.808H25.5737ZM28.4297 18L28.0457 18.368C28.7337 18.896 29.2777 19.392 29.6777 19.856L30.0937 19.44C29.6457 18.96 29.0857 18.48 28.4297 18ZM27.4537 15.264V16.64C27.4297 17.336 27.2457 17.904 26.9097 18.336C26.5417 18.752 25.8857 19.088 24.9577 19.336L25.2697 19.832C26.2297 19.56 26.9177 19.184 27.3417 18.712C27.7737 18.192 27.9977 17.504 28.0297 16.64V15.264H27.4537ZM30.7577 15.776V16.352H37.9497V15.776H30.7577Z" fill="#151618" fill-opacity="0.72"/>
<path fill-rule="evenodd" clip-rule="evenodd" d="M45.6267 13.75C45.6267 12.818 46.3822 12.0625 47.3142 12.0625H51.2517C52.1837 12.0625 52.9392 12.818 52.9392 13.75V17.6875C52.9392 18.6195 52.1837 19.375 51.2517 19.375H47.3142C46.3822 19.375 45.6267 18.6195 45.6267 17.6875V13.75Z" fill="#1F71FF"/>
<path d="M47.3142 15.7188H51.2517" stroke="white" stroke-width="0.84375"/>
<path d="M57.4299 12.592L57.0379 12.968C57.6059 13.416 58.0539 13.84 58.3819 14.24L58.7819 13.84C58.4139 13.424 57.9659 13.008 57.4299 12.592ZM62.0779 19.656H63.9339L64.0779 19.08C63.8619 19.096 63.5579 19.104 63.1739 19.112C62.7739 19.12 62.3819 19.128 61.9979 19.128C61.3739 19.128 60.8459 19.12 60.4299 19.112C59.9499 19.096 59.5899 19.032 59.3419 18.92C59.1179 18.816 58.9099 18.648 58.7179 18.416C58.6539 18.344 58.5899 18.28 58.5259 18.232V15.24H56.8539V15.768H57.9899V18.2C57.6539 18.344 57.2779 18.76 56.8459 19.44L57.2779 19.832C57.7259 19.08 58.0459 18.712 58.2459 18.712C58.3419 18.712 58.4459 18.776 58.5579 18.912C58.8059 19.2 59.0859 19.4 59.3979 19.496C59.7179 19.584 60.1419 19.632 60.6539 19.64C61.1659 19.648 61.6459 19.656 62.0779 19.656ZM61.3899 12.44V13.464H60.3339C60.4299 13.208 60.5179 12.944 60.5979 12.664L60.0459 12.552C59.8539 13.272 59.5419 13.936 59.1099 14.536L59.6139 14.848C59.7899 14.592 59.9499 14.32 60.0939 14.016H61.3899V15.16H59.3099V15.72H60.5979C60.5739 16.216 60.4939 16.648 60.3579 17C60.1499 17.48 59.7259 17.88 59.0779 18.2L59.4539 18.656C60.2059 18.264 60.6939 17.76 60.9019 17.152C61.0379 16.752 61.1179 16.272 61.1419 15.72H61.9499V17.992C61.9499 18.168 61.9979 18.312 62.1099 18.424C62.2139 18.536 62.3659 18.592 62.5739 18.592H63.1499C63.4219 18.584 63.6139 18.52 63.7259 18.408C63.8459 18.28 63.9339 17.888 63.9819 17.224L63.4779 17.056C63.4459 17.624 63.3819 17.944 63.2859 18.016C63.2219 18.064 63.1419 18.088 63.0299 18.088H62.7419C62.5659 18.088 62.4859 18.008 62.4859 17.864V15.72H63.8299V15.16H61.9499V14.016H63.5499V13.464H61.9499V12.44H61.3899ZM65.8139 13.808V17.608C65.4779 17.704 65.1339 17.792 64.7739 17.88L64.9419 18.448C65.8699 18.2 66.6859 17.928 67.3899 17.632V17.056C67.0779 17.184 66.7499 17.304 66.4059 17.424V13.808H67.3339V13.248H64.8619V13.808H65.8139ZM67.6379 12.808V13.368H69.5899C69.5499 13.664 69.4939 13.952 69.4139 14.224H68.0059V17.984H68.5579V14.752H71.1259V17.984H71.6859V14.224H69.9899C70.0539 13.952 70.1099 13.672 70.1579 13.368H72.0699V12.808H67.6379ZM70.4939 18L70.1099 18.368C70.7979 18.896 71.3419 19.392 71.7419 19.856L72.1579 19.44C71.7099 18.96 71.1499 18.48 70.4939 18ZM69.5179 15.264V16.64C69.4939 17.336 69.3099 17.904 68.9739 18.336C68.6059 18.752 67.9499 19.088 67.0219 19.336L67.3339 19.832C68.2939 19.56 68.9819 19.184 69.4059 18.712C69.8379 18.192 70.0619 17.504 70.0939 16.64V15.264H69.5179ZM73.5819 13.352V13.92H79.2619V13.352H73.5819ZM72.8459 18.384V18.968H79.9899V18.384H72.8459Z" fill="#151618" fill-opacity="0.72"/>
</svg>
