<svg width="84" height="32" viewBox="0 0 84 32" fill="none" xmlns="http://www.w3.org/2000/svg">
<g clip-path="url(#clip0)">
<path d="M0 9C0 7.89543 0.895432 7 2 7H82C83.1046 7 84 7.89543 84 9V25H0V9Z" fill="#0F2243" fill-opacity="0.05"/>
<path d="M4.576 12.288V18H5.232V13.304H5.256L8.504 18H9.176V12.288H8.52V16.936H8.496L5.264 12.288H4.576ZM12.094 13.752C11.47 13.752 10.982 13.96 10.614 14.392C10.262 14.8 10.086 15.312 10.086 15.936C10.086 16.552 10.262 17.064 10.614 17.464C10.982 17.896 11.47 18.112 12.094 18.112C12.71 18.112 13.206 17.896 13.582 17.464C13.926 17.064 14.102 16.552 14.102 15.936C14.102 15.312 13.926 14.8 13.574 14.392C13.206 13.96 12.71 13.752 12.094 13.752ZM12.094 14.288C12.526 14.288 12.87 14.456 13.126 14.792C13.342 15.096 13.454 15.472 13.454 15.936C13.454 16.384 13.342 16.768 13.126 17.072C12.87 17.408 12.526 17.576 12.094 17.576C11.654 17.576 11.31 17.408 11.07 17.072C10.846 16.768 10.742 16.392 10.742 15.936C10.742 15.472 10.846 15.096 11.07 14.792C11.31 14.456 11.654 14.288 12.094 14.288ZM16.7495 13.752C16.4615 13.752 16.2135 13.84 15.9975 14.016C15.8215 14.152 15.6775 14.344 15.5655 14.584V13.864H14.9335V18H15.5655V15.808C15.5655 15.424 15.6695 15.096 15.8935 14.824C16.1095 14.536 16.3815 14.4 16.7015 14.4C16.9015 14.4 17.1095 14.424 17.3175 14.488V13.848C17.1655 13.784 16.9735 13.752 16.7495 13.752ZM19.6634 13.752C19.1994 13.752 18.8074 13.968 18.4954 14.416V13.864H17.8554V18H18.4954V15.48C18.4954 15.152 18.5914 14.872 18.7834 14.648C18.9754 14.408 19.2154 14.296 19.5114 14.296C20.1434 14.296 20.4634 14.656 20.4634 15.392V18H21.1034V15.408C21.1034 15.072 21.1914 14.808 21.3834 14.6C21.5594 14.392 21.7914 14.296 22.0634 14.296C22.4154 14.296 22.6714 14.384 22.8314 14.576C22.9834 14.752 23.0634 15.024 23.0634 15.392V18H23.7034V15.288C23.7034 14.816 23.5674 14.44 23.3114 14.16C23.0394 13.888 22.6954 13.752 22.2634 13.752C21.9754 13.752 21.7354 13.816 21.5354 13.944C21.3114 14.064 21.1194 14.264 20.9594 14.536C20.7274 14.008 20.2954 13.752 19.6634 13.752ZM26.4991 13.752C26.0031 13.752 25.6111 13.848 25.3071 14.04C24.9711 14.248 24.7551 14.576 24.6671 15.008L25.2991 15.056C25.3631 14.792 25.4991 14.592 25.7151 14.464C25.9071 14.336 26.1551 14.28 26.4591 14.28C27.1791 14.28 27.5391 14.624 27.5391 15.32V15.536L26.5471 15.552C25.9231 15.56 25.4431 15.68 25.1071 15.904C24.7231 16.144 24.5391 16.496 24.5391 16.968C24.5391 17.304 24.6671 17.584 24.9231 17.8C25.1711 18.008 25.4991 18.112 25.9151 18.112C26.2991 18.112 26.6431 18.024 26.9471 17.856C27.2031 17.712 27.4191 17.528 27.5791 17.304V18H28.1791V15.344C28.1791 14.864 28.0511 14.488 27.8111 14.216C27.5231 13.904 27.0911 13.752 26.4991 13.752ZM27.5391 16.016V16.368C27.5391 16.688 27.3871 16.976 27.0911 17.224C26.7871 17.48 26.4431 17.608 26.0511 17.608C25.7951 17.608 25.5871 17.544 25.4271 17.424C25.2671 17.296 25.1951 17.144 25.1951 16.952C25.1951 16.352 25.6591 16.048 26.5871 16.032L27.5391 16.016ZM29.2959 12.176V18H29.9279V12.176H29.2959Z" fill="#151618" fill-opacity="0.72"/>
<path fill-rule="evenodd" clip-rule="evenodd" d="M76.5 13.5V14H77V13.5H78.5V14H79V13.5H80V14.5H75.5V13.5H76.5ZM76.5 13H75.25H75V13.25V17.75V18H75.25H80.25H80.5V17.75V13.25V13H80.25H79V12.5H78.5V13H77V12.5H76.5V13ZM75.5 15V17.5H80V15H75.5Z" fill="#151618" fill-opacity="0.48"/>
<rect x="-0.5" y="6.5" width="85" height="18" stroke="#0F2243" stroke-opacity="0.11"/>
</g>
<defs>
<clipPath id="clip0">
<path d="M0 9C0 7.89543 0.895432 7 2 7H82C83.1046 7 84 7.89543 84 9V25H0V9Z" fill="white"/>
</clipPath>
</defs>
</svg>
