<svg width="84" height="32" viewBox="0 0 84 32" fill="none" xmlns="http://www.w3.org/2000/svg">
<g clip-path="url(#clip0)">
<path d="M0 9C0 7.89543 0.895432 7 2 7H82C83.1046 7 84 7.89543 84 9V25H0V9Z" fill="#0F2243" fill-opacity="0.05"/>
<path d="M5.55 13.36C5.19 13.36 4.895 13.48 4.675 13.72C4.455 13.955 4.34 14.275 4.34 14.675H4.75C4.755 14.36 4.83 14.12 4.97 13.96C5.1 13.79 5.29 13.71 5.535 13.71C5.765 13.71 5.95 13.77 6.08 13.89C6.21 14.01 6.275 14.175 6.275 14.395C6.275 14.625 6.18 14.84 6 15.035C5.905 15.135 5.72 15.28 5.44 15.48C5.06 15.74 4.805 15.955 4.665 16.115C4.425 16.38 4.31 16.675 4.31 17H6.69V16.635H4.815C4.88 16.395 5.14 16.12 5.595 15.815C5.965 15.565 6.21 15.37 6.335 15.24C6.565 14.99 6.685 14.71 6.685 14.4C6.685 14.09 6.575 13.835 6.365 13.645C6.15 13.455 5.88 13.36 5.55 13.36ZM8.49805 13.36C8.06805 13.36 7.74805 13.545 7.53305 13.925C7.34305 14.245 7.24805 14.675 7.24805 15.215C7.24805 15.755 7.34305 16.185 7.53305 16.505C7.74805 16.88 8.06805 17.07 8.49805 17.07C8.92305 17.07 9.24305 16.88 9.46305 16.505C9.65305 16.185 9.74805 15.755 9.74805 15.215C9.74805 14.675 9.65305 14.245 9.46305 13.925C9.24305 13.545 8.92305 13.36 8.49805 13.36ZM8.49805 13.71C8.81805 13.71 9.04805 13.88 9.18805 14.225C9.28805 14.465 9.34305 14.795 9.34305 15.215C9.34305 15.63 9.28805 15.96 9.18805 16.205C9.04805 16.545 8.81805 16.72 8.49805 16.72C8.17805 16.72 7.94805 16.545 7.80805 16.205C7.70805 15.96 7.65805 15.63 7.65805 15.215C7.65805 14.795 7.70805 14.465 7.80805 14.225C7.94805 13.88 8.17805 13.71 8.49805 13.71ZM11.5461 13.36C11.1861 13.36 10.8911 13.48 10.6711 13.72C10.4511 13.955 10.3361 14.275 10.3361 14.675H10.7461C10.7511 14.36 10.8261 14.12 10.9661 13.96C11.0961 13.79 11.2861 13.71 11.5311 13.71C11.7611 13.71 11.9461 13.77 12.0761 13.89C12.2061 14.01 12.2711 14.175 12.2711 14.395C12.2711 14.625 12.1761 14.84 11.9961 15.035C11.9011 15.135 11.7161 15.28 11.4361 15.48C11.0561 15.74 10.8011 15.955 10.6611 16.115C10.4211 16.38 10.3061 16.675 10.3061 17H12.6861V16.635H10.8111C10.8761 16.395 11.1361 16.12 11.5911 15.815C11.9611 15.565 12.2061 15.37 12.3311 15.24C12.5611 14.99 12.6811 14.71 12.6811 14.4C12.6811 14.09 12.5711 13.835 12.3611 13.645C12.1461 13.455 11.8761 13.36 11.5461 13.36ZM14.4941 13.36C14.0641 13.36 13.7441 13.545 13.5291 13.925C13.3391 14.245 13.2441 14.675 13.2441 15.215C13.2441 15.755 13.3391 16.185 13.5291 16.505C13.7441 16.88 14.0641 17.07 14.4941 17.07C14.9191 17.07 15.2391 16.88 15.4591 16.505C15.6491 16.185 15.7441 15.755 15.7441 15.215C15.7441 14.675 15.6491 14.245 15.4591 13.925C15.2391 13.545 14.9191 13.36 14.4941 13.36ZM14.4941 13.71C14.8141 13.71 15.0441 13.88 15.1841 14.225C15.2841 14.465 15.3391 14.795 15.3391 15.215C15.3391 15.63 15.2841 15.96 15.1841 16.205C15.0441 16.545 14.8141 16.72 14.4941 16.72C14.1741 16.72 13.9441 16.545 13.8041 16.205C13.7041 15.96 13.6541 15.63 13.6541 15.215C13.6541 14.795 13.7041 14.465 13.8041 14.225C13.9441 13.88 14.1741 13.71 14.4941 13.71ZM17.9522 12.9L16.1772 17.5H16.5372L18.3072 12.9H17.9522ZM19.9922 13.36C19.5622 13.36 19.2422 13.545 19.0272 13.925C18.8372 14.245 18.7422 14.675 18.7422 15.215C18.7422 15.755 18.8372 16.185 19.0272 16.505C19.2422 16.88 19.5622 17.07 19.9922 17.07C20.4172 17.07 20.7372 16.88 20.9572 16.505C21.1472 16.185 21.2422 15.755 21.2422 15.215C21.2422 14.675 21.1472 14.245 20.9572 13.925C20.7372 13.545 20.4172 13.36 19.9922 13.36ZM19.9922 13.71C20.3122 13.71 20.5422 13.88 20.6822 14.225C20.7822 14.465 20.8372 14.795 20.8372 15.215C20.8372 15.63 20.7822 15.96 20.6822 16.205C20.5422 16.545 20.3122 16.72 19.9922 16.72C19.6722 16.72 19.4422 16.545 19.3022 16.205C19.2022 15.96 19.1522 15.63 19.1522 15.215C19.1522 14.795 19.2022 14.465 19.3022 14.225C19.4422 13.88 19.6722 13.71 19.9922 13.71ZM22.6402 13.43C22.5202 13.565 22.3802 13.685 22.2102 13.795C22.0402 13.895 21.8702 13.965 21.7102 14.01V14.42C22.0452 14.32 22.3252 14.16 22.5502 13.93V17H22.9602V13.43H22.6402ZM25.4571 12.9L23.6821 17.5H24.0421L25.8121 12.9H25.4571ZM27.4971 13.36C27.0671 13.36 26.7471 13.545 26.5321 13.925C26.3421 14.245 26.2471 14.675 26.2471 15.215C26.2471 15.755 26.3421 16.185 26.5321 16.505C26.7471 16.88 27.0671 17.07 27.4971 17.07C27.9221 17.07 28.2421 16.88 28.4621 16.505C28.6521 16.185 28.7471 15.755 28.7471 15.215C28.7471 14.675 28.6521 14.245 28.4621 13.925C28.2421 13.545 27.9221 13.36 27.4971 13.36ZM27.4971 13.71C27.8171 13.71 28.0471 13.88 28.1871 14.225C28.2871 14.465 28.3421 14.795 28.3421 15.215C28.3421 15.63 28.2871 15.96 28.1871 16.205C28.0471 16.545 27.8171 16.72 27.4971 16.72C27.1771 16.72 26.9471 16.545 26.8071 16.205C26.7071 15.96 26.6571 15.63 26.6571 15.215C26.6571 14.795 26.7071 14.465 26.8071 14.225C26.9471 13.88 27.1771 13.71 27.4971 13.71ZM30.5451 13.36C30.1851 13.36 29.8901 13.48 29.6701 13.72C29.4501 13.955 29.3351 14.275 29.3351 14.675H29.7451C29.7501 14.36 29.8251 14.12 29.9651 13.96C30.0951 13.79 30.2851 13.71 30.5301 13.71C30.7601 13.71 30.9451 13.77 31.0751 13.89C31.2051 14.01 31.2701 14.175 31.2701 14.395C31.2701 14.625 31.1751 14.84 30.9951 15.035C30.9001 15.135 30.7151 15.28 30.4351 15.48C30.0551 15.74 29.8001 15.955 29.6601 16.115C29.4201 16.38 29.3051 16.675 29.3051 17H31.6851V16.635H29.8101C29.8751 16.395 30.1351 16.12 30.5901 15.815C30.9601 15.565 31.2051 15.37 31.3301 15.24C31.5601 14.99 31.6801 14.71 31.6801 14.4C31.6801 14.09 31.5701 13.835 31.3601 13.645C31.1451 13.455 30.8751 13.36 30.5451 13.36Z" fill="#151618" fill-opacity="0.72"/>
<path d="M35.3 15.148C34.996 15.148 34.716 15.332 34.456 15.704L34.672 15.876C34.884 15.58 35.092 15.432 35.3 15.432C35.424 15.432 35.568 15.472 35.728 15.556C35.848 15.624 35.976 15.7 36.108 15.78C36.34 15.908 36.548 15.972 36.732 15.972C37.016 15.972 37.288 15.78 37.544 15.404L37.332 15.228C37.116 15.536 36.916 15.692 36.732 15.692C36.58 15.692 36.392 15.624 36.168 15.496C36.036 15.416 35.908 15.344 35.788 15.276C35.612 15.188 35.448 15.148 35.3 15.148Z" fill="#151618" fill-opacity="0.72"/>
<path d="M41.55 13.36C41.19 13.36 40.895 13.48 40.675 13.72C40.455 13.955 40.34 14.275 40.34 14.675H40.75C40.755 14.36 40.83 14.12 40.97 13.96C41.1 13.79 41.29 13.71 41.535 13.71C41.765 13.71 41.95 13.77 42.08 13.89C42.21 14.01 42.275 14.175 42.275 14.395C42.275 14.625 42.18 14.84 42 15.035C41.905 15.135 41.72 15.28 41.44 15.48C41.06 15.74 40.805 15.955 40.665 16.115C40.425 16.38 40.31 16.675 40.31 17H42.69V16.635H40.815C40.88 16.395 41.14 16.12 41.595 15.815C41.965 15.565 42.21 15.37 42.335 15.24C42.565 14.99 42.685 14.71 42.685 14.4C42.685 14.09 42.575 13.835 42.365 13.645C42.15 13.455 41.88 13.36 41.55 13.36ZM44.498 13.36C44.068 13.36 43.748 13.545 43.533 13.925C43.343 14.245 43.248 14.675 43.248 15.215C43.248 15.755 43.343 16.185 43.533 16.505C43.748 16.88 44.068 17.07 44.498 17.07C44.923 17.07 45.243 16.88 45.463 16.505C45.653 16.185 45.748 15.755 45.748 15.215C45.748 14.675 45.653 14.245 45.463 13.925C45.243 13.545 44.923 13.36 44.498 13.36ZM44.498 13.71C44.818 13.71 45.048 13.88 45.188 14.225C45.288 14.465 45.343 14.795 45.343 15.215C45.343 15.63 45.288 15.96 45.188 16.205C45.048 16.545 44.818 16.72 44.498 16.72C44.178 16.72 43.948 16.545 43.808 16.205C43.708 15.96 43.658 15.63 43.658 15.215C43.658 14.795 43.708 14.465 43.808 14.225C43.948 13.88 44.178 13.71 44.498 13.71ZM47.5461 13.36C47.1861 13.36 46.8911 13.48 46.6711 13.72C46.4511 13.955 46.3361 14.275 46.3361 14.675H46.7461C46.7511 14.36 46.8261 14.12 46.9661 13.96C47.0961 13.79 47.2861 13.71 47.5311 13.71C47.7611 13.71 47.9461 13.77 48.0761 13.89C48.2061 14.01 48.2711 14.175 48.2711 14.395C48.2711 14.625 48.1761 14.84 47.9961 15.035C47.9011 15.135 47.7161 15.28 47.4361 15.48C47.0561 15.74 46.8011 15.955 46.6611 16.115C46.4211 16.38 46.3061 16.675 46.3061 17H48.6861V16.635H46.8111C46.8761 16.395 47.1361 16.12 47.5911 15.815C47.9611 15.565 48.2061 15.37 48.3311 15.24C48.5611 14.99 48.6811 14.71 48.6811 14.4C48.6811 14.09 48.5711 13.835 48.3611 13.645C48.1461 13.455 47.8761 13.36 47.5461 13.36ZM50.4941 13.36C50.0641 13.36 49.7441 13.545 49.5291 13.925C49.3391 14.245 49.2441 14.675 49.2441 15.215C49.2441 15.755 49.3391 16.185 49.5291 16.505C49.7441 16.88 50.0641 17.07 50.4941 17.07C50.9191 17.07 51.2391 16.88 51.4591 16.505C51.6491 16.185 51.7441 15.755 51.7441 15.215C51.7441 14.675 51.6491 14.245 51.4591 13.925C51.2391 13.545 50.9191 13.36 50.4941 13.36ZM50.4941 13.71C50.8141 13.71 51.0441 13.88 51.1841 14.225C51.2841 14.465 51.3391 14.795 51.3391 15.215C51.3391 15.63 51.2841 15.96 51.1841 16.205C51.0441 16.545 50.8141 16.72 50.4941 16.72C50.1741 16.72 49.9441 16.545 49.8041 16.205C49.7041 15.96 49.6541 15.63 49.6541 15.215C49.6541 14.795 49.7041 14.465 49.8041 14.225C49.9441 13.88 50.1741 13.71 50.4941 13.71ZM53.9522 12.9L52.1772 17.5H52.5372L54.3072 12.9H53.9522ZM55.9922 13.36C55.5622 13.36 55.2422 13.545 55.0272 13.925C54.8372 14.245 54.7422 14.675 54.7422 15.215C54.7422 15.755 54.8372 16.185 55.0272 16.505C55.2422 16.88 55.5622 17.07 55.9922 17.07C56.4172 17.07 56.7372 16.88 56.9572 16.505C57.1472 16.185 57.2422 15.755 57.2422 15.215C57.2422 14.675 57.1472 14.245 56.9572 13.925C56.7372 13.545 56.4172 13.36 55.9922 13.36ZM55.9922 13.71C56.3122 13.71 56.5422 13.88 56.6822 14.225C56.7822 14.465 56.8372 14.795 56.8372 15.215C56.8372 15.63 56.7822 15.96 56.6822 16.205C56.5422 16.545 56.3122 16.72 55.9922 16.72C55.6722 16.72 55.4422 16.545 55.3022 16.205C55.2022 15.96 55.1522 15.63 55.1522 15.215C55.1522 14.795 55.2022 14.465 55.3022 14.225C55.4422 13.88 55.6722 13.71 55.9922 13.71ZM59.0402 13.36C58.6802 13.36 58.3852 13.48 58.1652 13.72C57.9452 13.955 57.8302 14.275 57.8302 14.675H58.2402C58.2452 14.36 58.3202 14.12 58.4602 13.96C58.5902 13.79 58.7802 13.71 59.0252 13.71C59.2552 13.71 59.4402 13.77 59.5702 13.89C59.7002 14.01 59.7652 14.175 59.7652 14.395C59.7652 14.625 59.6702 14.84 59.4902 15.035C59.3952 15.135 59.2102 15.28 58.9302 15.48C58.5502 15.74 58.2952 15.955 58.1552 16.115C57.9152 16.38 57.8002 16.675 57.8002 17H60.1802V16.635H58.3052C58.3702 16.395 58.6302 16.12 59.0852 15.815C59.4552 15.565 59.7002 15.37 59.8252 15.24C60.0552 14.99 60.1752 14.71 60.1752 14.4C60.1752 14.09 60.0652 13.835 59.8552 13.645C59.6402 13.455 59.3702 13.36 59.0402 13.36ZM62.4483 12.9L60.6733 17.5H61.0333L62.8033 12.9H62.4483ZM64.4883 13.36C64.0583 13.36 63.7383 13.545 63.5233 13.925C63.3333 14.245 63.2383 14.675 63.2383 15.215C63.2383 15.755 63.3333 16.185 63.5233 16.505C63.7383 16.88 64.0583 17.07 64.4883 17.07C64.9133 17.07 65.2333 16.88 65.4533 16.505C65.6433 16.185 65.7383 15.755 65.7383 15.215C65.7383 14.675 65.6433 14.245 65.4533 13.925C65.2333 13.545 64.9133 13.36 64.4883 13.36ZM64.4883 13.71C64.8083 13.71 65.0383 13.88 65.1783 14.225C65.2783 14.465 65.3333 14.795 65.3333 15.215C65.3333 15.63 65.2783 15.96 65.1783 16.205C65.0383 16.545 64.8083 16.72 64.4883 16.72C64.1683 16.72 63.9383 16.545 63.7983 16.205C63.6983 15.96 63.6483 15.63 63.6483 15.215C63.6483 14.795 63.6983 14.465 63.7983 14.225C63.9383 13.88 64.1683 13.71 64.4883 13.71ZM67.5363 13.36C67.1763 13.36 66.8813 13.48 66.6613 13.72C66.4413 13.955 66.3263 14.275 66.3263 14.675H66.7363C66.7413 14.36 66.8163 14.12 66.9563 13.96C67.0863 13.79 67.2763 13.71 67.5213 13.71C67.7513 13.71 67.9363 13.77 68.0663 13.89C68.1963 14.01 68.2613 14.175 68.2613 14.395C68.2613 14.625 68.1663 14.84 67.9863 15.035C67.8913 15.135 67.7063 15.28 67.4263 15.48C67.0463 15.74 66.7913 15.955 66.6513 16.115C66.4113 16.38 66.2963 16.675 66.2963 17H68.6763V16.635H66.8013C66.8663 16.395 67.1263 16.12 67.5813 15.815C67.9513 15.565 68.1963 15.37 68.3213 15.24C68.5513 14.99 68.6713 14.71 68.6713 14.4C68.6713 14.09 68.5613 13.835 68.3513 13.645C68.1363 13.455 67.8663 13.36 67.5363 13.36Z" fill="#151618" fill-opacity="0.72"/>
<path fill-rule="evenodd" clip-rule="evenodd" d="M76.5 13.5V14H77V13.5H78.5V14H79V13.5H80V14.5H75.5V13.5H76.5ZM76.5 13H75.25H75V13.25V17.75V18H75.25H80.25H80.5V17.75V13.25V13H80.25H79V12.5H78.5V13H77V12.5H76.5V13ZM75.5 15V17.5H80V15H75.5Z" fill="#151618" fill-opacity="0.48"/>
<rect x="-0.5" y="6.5" width="85" height="18" stroke="#0F2243" stroke-opacity="0.11"/>
</g>
<defs>
<clipPath id="clip0">
<path d="M0 9C0 7.89543 0.895432 7 2 7H82C83.1046 7 84 7.89543 84 9V25H0V9Z" fill="white"/>
</clipPath>
</defs>
</svg>
