<svg width="84" height="32" viewBox="0 0 84 32" fill="none" xmlns="http://www.w3.org/2000/svg">
<g clip-path="url(#clip0)">
<path d="M0 9.52632C0 8.13107 1.13107 7 2.52632 7H81.4737C82.8689 7 84 8.13107 84 9.52632V25H0V9.52632Z" fill="#0F2243" fill-opacity="0.05"/>
<path d="M5.84 13.288C5.648 13.504 5.424 13.696 5.152 13.872C4.88 14.032 4.608 14.144 4.352 14.216V14.872C4.888 14.712 5.336 14.456 5.696 14.088V19H6.352V13.288H5.84ZM9.69094 13.176C9.11494 13.176 8.64294 13.368 8.29094 13.752C7.93894 14.128 7.75494 14.64 7.75494 15.28H8.41094C8.41894 14.776 8.53894 14.392 8.76294 14.136C8.97094 13.864 9.27494 13.736 9.66694 13.736C10.0349 13.736 10.3309 13.832 10.5389 14.024C10.7469 14.216 10.8509 14.48 10.8509 14.832C10.8509 15.2 10.6989 15.544 10.4109 15.856C10.2589 16.016 9.96294 16.248 9.51494 16.568C8.90694 16.984 8.49894 17.328 8.27494 17.584C7.89094 18.008 7.70694 18.48 7.70694 19H11.5149V18.416H8.51494C8.61894 18.032 9.03494 17.592 9.76294 17.104C10.3549 16.704 10.7469 16.392 10.9469 16.184C11.3149 15.784 11.5069 15.336 11.5069 14.84C11.5069 14.344 11.3309 13.936 10.9949 13.632C10.6509 13.328 10.2189 13.176 9.69094 13.176ZM14.4638 13.176C13.9198 13.176 13.4798 13.328 13.1438 13.64C12.7918 13.952 12.5838 14.384 12.5358 14.936H13.1838C13.2238 14.552 13.3518 14.256 13.5758 14.048C13.7918 13.84 14.0878 13.744 14.4718 13.744C14.8398 13.744 15.1358 13.832 15.3438 14.024C15.5358 14.2 15.6398 14.448 15.6398 14.768C15.6398 15.088 15.5358 15.336 15.3358 15.512C15.1358 15.68 14.8478 15.768 14.4638 15.768H14.0238V16.28H14.4878C14.8878 16.28 15.1918 16.368 15.4158 16.56C15.6398 16.752 15.7518 17.016 15.7518 17.36C15.7518 17.696 15.6318 17.976 15.4078 18.2C15.1598 18.432 14.8318 18.552 14.4238 18.552C14.0638 18.552 13.7678 18.448 13.5278 18.256C13.2478 18.024 13.0958 17.68 13.0798 17.232H12.4158C12.4638 17.872 12.6878 18.36 13.0958 18.696C13.4398 18.968 13.8798 19.112 14.4238 19.112C15.0158 19.112 15.4958 18.944 15.8638 18.608C16.2238 18.28 16.4078 17.856 16.4078 17.336C16.4078 17 16.3118 16.72 16.1198 16.496C15.9438 16.272 15.6878 16.112 15.3518 16.008C15.9758 15.8 16.2878 15.368 16.2878 14.728C16.2878 14.248 16.1198 13.872 15.7918 13.592C15.4558 13.312 15.0078 13.176 14.4638 13.176Z" fill="#151618" fill-opacity="0.72"/>
<rect x="-0.5" y="6.5" width="85" height="18" stroke="#0F2243" stroke-opacity="0.11"/>
</g>
<defs>
<clipPath id="clip0">
<path d="M0 9.52632C0 8.13107 1.13107 7 2.52632 7H81.4737C82.8689 7 84 8.13107 84 9.52632V25H0V9.52632Z" fill="white"/>
</clipPath>
</defs>
</svg>
