<svg width="84" height="32" viewBox="0 0 84 32" fill="none" xmlns="http://www.w3.org/2000/svg">
<path fill-rule="evenodd" clip-rule="evenodd" d="M3 15.7187C3 13.3888 4.8888 11.5 7.21875 11.5C9.5487 11.5 11.4375 13.3888 11.4375 15.7187C11.4375 18.0487 9.5487 19.9375 7.21875 19.9375C4.8888 19.9375 3 18.0487 3 15.7187ZM7.21875 12.0625C5.19946 12.0625 3.5625 13.6995 3.5625 15.7187C3.5625 17.738 5.19946 19.375 7.21875 19.375C9.23804 19.375 10.875 17.738 10.875 15.7187C10.875 13.6995 9.23804 12.0625 7.21875 12.0625Z" fill="#151618" fill-opacity="0.48"/>
<path d="M15.5657 13.712V17H18.0697V17.76H14.8057V18.304H18.0697V19.824H18.6457V18.304H21.9097V17.76H18.6457V17H21.1497V13.712H19.6137C19.8537 13.384 20.0697 13.016 20.2617 12.608L19.7017 12.408C19.5017 12.872 19.2697 13.312 19.0137 13.712H15.5657ZM20.5897 16.488H18.6457V15.592H20.5897V16.488ZM18.0697 16.488H16.1257V15.592H18.0697V16.488ZM16.1257 15.096V14.216H18.0697V15.096H16.1257ZM18.6457 14.216H20.5897V15.096H18.6457V14.216ZM16.9817 12.448L16.4937 12.68C16.7657 12.984 17.0137 13.32 17.2537 13.704L17.7337 13.464C17.4937 13.096 17.2457 12.752 16.9817 12.448ZM23.3657 12.592L22.9737 12.968C23.5417 13.416 23.9897 13.84 24.3177 14.24L24.7177 13.84C24.3497 13.424 23.9017 13.008 23.3657 12.592ZM28.0137 19.656H29.8697L30.0137 19.08C29.7977 19.096 29.4937 19.104 29.1097 19.112C28.7097 19.12 28.3177 19.128 27.9337 19.128C27.3097 19.128 26.7817 19.12 26.3657 19.112C25.8857 19.096 25.5257 19.032 25.2777 18.92C25.0537 18.816 24.8457 18.648 24.6537 18.416C24.5897 18.344 24.5257 18.28 24.4617 18.232V15.24H22.7897V15.768H23.9257V18.2C23.5897 18.344 23.2137 18.76 22.7817 19.44L23.2137 19.832C23.6617 19.08 23.9817 18.712 24.1817 18.712C24.2777 18.712 24.3817 18.776 24.4937 18.912C24.7417 19.2 25.0217 19.4 25.3337 19.496C25.6537 19.584 26.0777 19.632 26.5897 19.64C27.1017 19.648 27.5817 19.656 28.0137 19.656ZM27.3257 12.44V13.464H26.2697C26.3657 13.208 26.4537 12.944 26.5337 12.664L25.9817 12.552C25.7897 13.272 25.4777 13.936 25.0457 14.536L25.5497 14.848C25.7257 14.592 25.8857 14.32 26.0297 14.016H27.3257V15.16H25.2457V15.72H26.5337C26.5097 16.216 26.4297 16.648 26.2937 17C26.0857 17.48 25.6617 17.88 25.0137 18.2L25.3897 18.656C26.1417 18.264 26.6297 17.76 26.8377 17.152C26.9737 16.752 27.0537 16.272 27.0777 15.72H27.8857V17.992C27.8857 18.168 27.9337 18.312 28.0457 18.424C28.1497 18.536 28.3017 18.592 28.5097 18.592H29.0857C29.3577 18.584 29.5497 18.52 29.6617 18.408C29.7817 18.28 29.8697 17.888 29.9177 17.224L29.4137 17.056C29.3817 17.624 29.3177 17.944 29.2217 18.016C29.1577 18.064 29.0777 18.088 28.9657 18.088H28.6777C28.5017 18.088 28.4217 18.008 28.4217 17.864V15.72H29.7657V15.16H27.8857V14.016H29.4857V13.464H27.8857V12.44H27.3257ZM30.7577 15.776V16.352H37.9497V15.776H30.7577Z" fill="#151618" fill-opacity="0.72"/>
<path fill-rule="evenodd" clip-rule="evenodd" d="M49.283 11.5C46.953 11.5 45.0642 13.3888 45.0642 15.7187C45.0642 18.0487 46.953 19.9375 49.283 19.9375C51.6129 19.9375 53.5017 18.0487 53.5017 15.7187C53.5017 13.3888 51.6129 11.5 49.283 11.5Z" fill="#1F71FF"/>
<path fill-rule="evenodd" clip-rule="evenodd" d="M49.283 17.125C50.0596 17.125 50.6892 16.4954 50.6892 15.7187C50.6892 14.9421 50.0596 14.3125 49.283 14.3125C48.5063 14.3125 47.8767 14.9421 47.8767 15.7187C47.8767 16.4954 48.5063 17.125 49.283 17.125Z" fill="white"/>
<path d="M57.6299 13.712V17H60.1339V17.76H56.8699V18.304H60.1339V19.824H60.7099V18.304H63.9739V17.76H60.7099V17H63.2139V13.712H61.6779C61.9179 13.384 62.1339 13.016 62.3259 12.608L61.7659 12.408C61.5659 12.872 61.3339 13.312 61.0779 13.712H57.6299ZM62.6539 16.488H60.7099V15.592H62.6539V16.488ZM60.1339 16.488H58.1899V15.592H60.1339V16.488ZM58.1899 15.096V14.216H60.1339V15.096H58.1899ZM60.7099 14.216H62.6539V15.096H60.7099V14.216ZM59.0459 12.448L58.5579 12.68C58.8299 12.984 59.0779 13.32 59.3179 13.704L59.7979 13.464C59.5579 13.096 59.3099 12.752 59.0459 12.448ZM65.4299 12.592L65.0379 12.968C65.6059 13.416 66.0539 13.84 66.3819 14.24L66.7819 13.84C66.4139 13.424 65.9659 13.008 65.4299 12.592ZM70.0779 19.656H71.9339L72.0779 19.08C71.8619 19.096 71.5579 19.104 71.1739 19.112C70.7739 19.12 70.3819 19.128 69.9979 19.128C69.3739 19.128 68.8459 19.12 68.4299 19.112C67.9499 19.096 67.5899 19.032 67.3419 18.92C67.1179 18.816 66.9099 18.648 66.7179 18.416C66.6539 18.344 66.5899 18.28 66.5259 18.232V15.24H64.8539V15.768H65.9899V18.2C65.6539 18.344 65.2779 18.76 64.8459 19.44L65.2779 19.832C65.7259 19.08 66.0459 18.712 66.2459 18.712C66.3419 18.712 66.4459 18.776 66.5579 18.912C66.8059 19.2 67.0859 19.4 67.3979 19.496C67.7179 19.584 68.1419 19.632 68.6539 19.64C69.1659 19.648 69.6459 19.656 70.0779 19.656ZM69.3899 12.44V13.464H68.3339C68.4299 13.208 68.5179 12.944 68.5979 12.664L68.0459 12.552C67.8539 13.272 67.5419 13.936 67.1099 14.536L67.6139 14.848C67.7899 14.592 67.9499 14.32 68.0939 14.016H69.3899V15.16H67.3099V15.72H68.5979C68.5739 16.216 68.4939 16.648 68.3579 17C68.1499 17.48 67.7259 17.88 67.0779 18.2L67.4539 18.656C68.2059 18.264 68.6939 17.76 68.9019 17.152C69.0379 16.752 69.1179 16.272 69.1419 15.72H69.9499V17.992C69.9499 18.168 69.9979 18.312 70.1099 18.424C70.2139 18.536 70.3659 18.592 70.5739 18.592H71.1499C71.4219 18.584 71.6139 18.52 71.7259 18.408C71.8459 18.28 71.9339 17.888 71.9819 17.224L71.4779 17.056C71.4459 17.624 71.3819 17.944 71.2859 18.016C71.2219 18.064 71.1419 18.088 71.0299 18.088H70.7419C70.5659 18.088 70.4859 18.008 70.4859 17.864V15.72H71.8299V15.16H69.9499V14.016H71.5499V13.464H69.9499V12.44H69.3899ZM73.5819 13.352V13.92H79.2619V13.352H73.5819ZM72.8459 18.384V18.968H79.9899V18.384H72.8459Z" fill="#151618" fill-opacity="0.72"/>
</svg>
