<svg width="84" height="32" viewBox="0 0 84 32" fill="none" xmlns="http://www.w3.org/2000/svg">
<g clip-path="url(#clip0)">
<path d="M0 9.51852C0 8.12758 1.12758 7 2.51852 7H81.4815C82.8724 7 84 8.12758 84 9.51852V25H0V9.51852Z" fill="#0F2243" fill-opacity="0.05"/>
<g clip-path="url(#clip1)">
<path d="M7.50905 12.7777V14.1419H4.79579V17.704H5.34147V17.2265H7.50905V19.8109H8.06989V17.2265H10.2451V17.704H10.7907V14.1419H8.06989V12.7777H7.50905ZM5.34147 16.696V14.6724H7.50905V16.696H5.34147ZM8.06989 16.696V14.6724H10.2451V16.696H8.06989ZM13.4888 14.3617V14.8543H15.088V15.9457H13.7314V16.4307H15.088V17.6358H13.2842V18.136H17.4602V17.6358H15.6488V16.4307H17.0055V15.9457H15.6488V14.8543H17.2404V14.3617H13.4888ZM18.4834 13.1566H12.2535V19.7427H12.8067V19.4168H17.9301V19.7427H18.4834V13.1566ZM12.8067 18.9015V13.672H17.9301V18.9015H12.8067ZM16.5432 16.5899L16.1112 16.7339C16.2931 16.984 16.4598 17.2796 16.6114 17.6206L17.0358 17.4236C16.8994 17.128 16.7326 16.8476 16.5432 16.5899Z" fill="#151618" fill-opacity="0.72"/>
</g>
<path fill-rule="evenodd" clip-rule="evenodd" d="M76.7791 17.1578L74.5916 14.9703L75.0335 14.5283L77 16.4948L78.9666 14.5283L79.4085 14.9703L77.221 17.1578L77 17.3787L76.7791 17.1578Z" fill="#151618" fill-opacity="0.48"/>
<rect x="-0.5" y="6.5" width="85" height="18" stroke="#0F2243" stroke-opacity="0.11"/>
</g>
<defs>
<clipPath id="clip0">
<path d="M0 9.51852C0 8.12758 1.12758 7 2.51852 7H81.4815C82.8724 7 84 8.12758 84 9.51852V25H0V9.51852Z" fill="white"/>
</clipPath>
<clipPath id="clip1">
<rect width="61.2963" height="12.5926" fill="white" transform="translate(4.03711 9.51855)"/>
</clipPath>
</defs>
</svg>
