<svg width="84" height="32" viewBox="0 0 84 32" fill="none" xmlns="http://www.w3.org/2000/svg">
<g clip-path="url(#clip0)">
<path d="M0 9.5625C0 8.14727 1.14727 7 2.5625 7H81.4375C82.8527 7 84 8.14727 84 9.5625V25H0V9.5625Z" fill="#0F2243" fill-opacity="0.05"/>
<path fill-rule="evenodd" clip-rule="evenodd" d="M38.4375 14.6875C38.4375 13.2723 39.5848 12.125 41 12.125C42.4152 12.125 43.5625 13.2723 43.5625 14.6875C43.5625 16.1027 42.4152 17.25 41 17.25C39.5848 17.25 38.4375 16.1027 38.4375 14.6875ZM41 11.4844C39.231 11.4844 37.7969 12.9185 37.7969 14.6875C37.7969 16.4565 39.231 17.8906 41 17.8906C41.7691 17.8906 42.4748 17.6196 43.027 17.1678L45.8986 20.0394L46.3516 19.5864L43.48 16.7149C43.932 16.1627 44.2031 15.4567 44.2031 14.6875C44.2031 12.9185 42.769 11.4844 41 11.4844Z" fill="#151618" fill-opacity="0.48"/>
<rect x="-0.320312" y="6.67969" width="84.6406" height="18" stroke="#0F2243" stroke-opacity="0.11" stroke-width="0.640625"/>
</g>
<defs>
<clipPath id="clip0">
<path d="M0 9.5625C0 8.14727 1.14727 7 2.5625 7H81.4375C82.8527 7 84 8.14727 84 9.5625V25H0V9.5625Z" fill="white"/>
</clipPath>
</defs>
</svg>
