<svg width="84" height="32" viewBox="0 0 84 32" fill="none" xmlns="http://www.w3.org/2000/svg">
<g clip-path="url(#clip0)">
<path d="M0 9.51852C0 8.12758 1.12758 7 2.51852 7H81.4815C82.8724 7 84 8.12758 84 9.51852V25H0V9.51852Z" fill="#0F2243" fill-opacity="0.05"/>
<g clip-path="url(#clip1)">
<path d="M4.54568 13.5886V19H5.16716V14.5512H5.18989L8.26695 19H8.90358V13.5886H8.28211V17.992H8.25937L5.19747 13.5886H4.54568ZM11.668 14.9756C11.0768 14.9756 10.6145 15.1726 10.2659 15.5819C9.93242 15.9684 9.76568 16.4535 9.76568 17.0446C9.76568 17.6282 9.93242 18.1133 10.2659 18.4922C10.6145 18.9015 11.0768 19.1061 11.668 19.1061C12.2516 19.1061 12.7215 18.9015 13.0777 18.4922C13.4036 18.1133 13.5703 17.6282 13.5703 17.0446C13.5703 16.4535 13.4036 15.9684 13.0701 15.5819C12.7215 15.1726 12.2516 14.9756 11.668 14.9756ZM11.668 15.4834C12.0773 15.4834 12.4032 15.6425 12.6457 15.9608C12.8503 16.2488 12.9564 16.6051 12.9564 17.0446C12.9564 17.4691 12.8503 17.8328 12.6457 18.1208C12.4032 18.4392 12.0773 18.5983 11.668 18.5983C11.2512 18.5983 10.9253 18.4392 10.6979 18.1208C10.4857 17.8328 10.3872 17.4766 10.3872 17.0446C10.3872 16.6051 10.4857 16.2488 10.6979 15.9608C10.9253 15.6425 11.2512 15.4834 11.668 15.4834ZM16.0785 14.9756C15.8056 14.9756 15.5707 15.0589 15.3661 15.2257C15.1993 15.3545 15.0629 15.5364 14.9568 15.7638V15.0817H14.3581V19H14.9568V16.9234C14.9568 16.5596 15.0553 16.2488 15.2675 15.9912C15.4722 15.7183 15.7298 15.5895 16.033 15.5895C16.2225 15.5895 16.4195 15.6122 16.6166 15.6728V15.0665C16.4726 15.0059 16.2907 14.9756 16.0785 14.9756ZM18.839 14.9756C18.3994 14.9756 18.028 15.1802 17.7325 15.6046V15.0817H17.1261V19H17.7325V16.6126C17.7325 16.3019 17.8234 16.0366 18.0053 15.8244C18.1872 15.5971 18.4146 15.4909 18.695 15.4909C19.2937 15.4909 19.5969 15.832 19.5969 16.5293V19H20.2032V16.5444C20.2032 16.2261 20.2866 15.976 20.4685 15.7789C20.6352 15.5819 20.855 15.4909 21.1127 15.4909C21.4461 15.4909 21.6887 15.5743 21.8402 15.7562C21.9842 15.9229 22.06 16.1806 22.06 16.5293V19H22.6664V16.4307C22.6664 15.9836 22.5375 15.6274 22.295 15.3621C22.0373 15.1044 21.7114 14.9756 21.3021 14.9756C21.0293 14.9756 20.8019 15.0362 20.6125 15.1575C20.4002 15.2712 20.2184 15.4606 20.0668 15.7183C19.847 15.2181 19.4377 14.9756 18.839 14.9756ZM25.315 14.9756C24.8451 14.9756 24.4737 15.0665 24.1857 15.2484C23.8674 15.4455 23.6627 15.7562 23.5794 16.1655L24.1781 16.2109C24.2387 15.9608 24.3676 15.7714 24.5722 15.6501C24.7541 15.5288 24.9891 15.4758 25.2771 15.4758C25.9592 15.4758 26.3002 15.8017 26.3002 16.4611V16.6657L25.3604 16.6808C24.7693 16.6884 24.3145 16.8021 23.9962 17.0143C23.6324 17.2417 23.4581 17.5752 23.4581 18.0223C23.4581 18.3406 23.5794 18.6059 23.8219 18.8105C24.0569 19.0076 24.3676 19.1061 24.7617 19.1061C25.1255 19.1061 25.4514 19.0227 25.7394 18.8636C25.9819 18.7272 26.1865 18.5528 26.3381 18.3406V19H26.9065V16.4838C26.9065 16.0291 26.7853 15.6728 26.5579 15.4152C26.2851 15.1196 25.8758 14.9756 25.315 14.9756ZM26.3002 17.1204V17.4539C26.3002 17.7571 26.1562 18.0299 25.8758 18.2648C25.5878 18.5074 25.2619 18.6286 24.8905 18.6286C24.648 18.6286 24.451 18.568 24.2994 18.4543C24.1478 18.3331 24.0796 18.1891 24.0796 18.0072C24.0796 17.4387 24.5192 17.1507 25.3983 17.1356L26.3002 17.1204ZM27.9645 13.4825V19H28.5632V13.4825H27.9645Z" fill="#151618" fill-opacity="0.72"/>
</g>
<path fill-rule="evenodd" clip-rule="evenodd" d="M76.7791 17.1578L74.5916 14.9703L75.0335 14.5283L77 16.4948L78.9666 14.5283L79.4085 14.9703L77.221 17.1578L77 17.3787L76.7791 17.1578Z" fill="#151618" fill-opacity="0.48"/>
<rect x="-0.5" y="6.5" width="85" height="18" stroke="#0F2243" stroke-opacity="0.11"/>
</g>
<defs>
<clipPath id="clip0">
<path d="M0 9.51852C0 8.12758 1.12758 7 2.51852 7H81.4815C82.8724 7 84 8.12758 84 9.51852V25H0V9.51852Z" fill="white"/>
</clipPath>
<clipPath id="clip1">
<rect width="61.2963" height="12.5926" fill="white" transform="translate(4.03711 9.51855)"/>
</clipPath>
</defs>
</svg>
