<svg width="84" height="32" viewBox="0 0 84 32" fill="none" xmlns="http://www.w3.org/2000/svg">
<g clip-path="url(#clip0)">
<path d="M0 9.51852C0 8.12758 1.12758 7 2.51852 7H81.4815C82.8724 7 84 8.12758 84 9.51852V25H0V9.51852Z" fill="#0F2243" fill-opacity="0.05"/>
<g clip-path="url(#clip1)">
<path d="M4.576 13.288V19H5.232V14.304H5.256L8.504 19H9.176V13.288H8.52V17.936H8.496L5.264 13.288H4.576ZM12.094 14.752C11.47 14.752 10.982 14.96 10.614 15.392C10.262 15.8 10.086 16.312 10.086 16.936C10.086 17.552 10.262 18.064 10.614 18.464C10.982 18.896 11.47 19.112 12.094 19.112C12.71 19.112 13.206 18.896 13.582 18.464C13.926 18.064 14.102 17.552 14.102 16.936C14.102 16.312 13.926 15.8 13.574 15.392C13.206 14.96 12.71 14.752 12.094 14.752ZM12.094 15.288C12.526 15.288 12.87 15.456 13.126 15.792C13.342 16.096 13.454 16.472 13.454 16.936C13.454 17.384 13.342 17.768 13.126 18.072C12.87 18.408 12.526 18.576 12.094 18.576C11.654 18.576 11.31 18.408 11.07 18.072C10.846 17.768 10.742 17.392 10.742 16.936C10.742 16.472 10.846 16.096 11.07 15.792C11.31 15.456 11.654 15.288 12.094 15.288ZM16.7495 14.752C16.4615 14.752 16.2135 14.84 15.9975 15.016C15.8215 15.152 15.6775 15.344 15.5655 15.584V14.864H14.9335V19H15.5655V16.808C15.5655 16.424 15.6695 16.096 15.8935 15.824C16.1095 15.536 16.3815 15.4 16.7015 15.4C16.9015 15.4 17.1095 15.424 17.3175 15.488V14.848C17.1655 14.784 16.9735 14.752 16.7495 14.752ZM19.6634 14.752C19.1994 14.752 18.8074 14.968 18.4954 15.416V14.864H17.8554V19H18.4954V16.48C18.4954 16.152 18.5914 15.872 18.7834 15.648C18.9754 15.408 19.2154 15.296 19.5114 15.296C20.1434 15.296 20.4634 15.656 20.4634 16.392V19H21.1034V16.408C21.1034 16.072 21.1914 15.808 21.3834 15.6C21.5594 15.392 21.7914 15.296 22.0634 15.296C22.4154 15.296 22.6714 15.384 22.8314 15.576C22.9834 15.752 23.0634 16.024 23.0634 16.392V19H23.7034V16.288C23.7034 15.816 23.5674 15.44 23.3114 15.16C23.0394 14.888 22.6954 14.752 22.2634 14.752C21.9754 14.752 21.7354 14.816 21.5354 14.944C21.3114 15.064 21.1194 15.264 20.9594 15.536C20.7274 15.008 20.2954 14.752 19.6634 14.752ZM26.4991 14.752C26.0031 14.752 25.6111 14.848 25.3071 15.04C24.9711 15.248 24.7551 15.576 24.6671 16.008L25.2991 16.056C25.3631 15.792 25.4991 15.592 25.7151 15.464C25.9071 15.336 26.1551 15.28 26.4591 15.28C27.1791 15.28 27.5391 15.624 27.5391 16.32V16.536L26.5471 16.552C25.9231 16.56 25.4431 16.68 25.1071 16.904C24.7231 17.144 24.5391 17.496 24.5391 17.968C24.5391 18.304 24.6671 18.584 24.9231 18.8C25.1711 19.008 25.4991 19.112 25.9151 19.112C26.2991 19.112 26.6431 19.024 26.9471 18.856C27.2031 18.712 27.4191 18.528 27.5791 18.304V19H28.1791V16.344C28.1791 15.864 28.0511 15.488 27.8111 15.216C27.5231 14.904 27.0911 14.752 26.4991 14.752ZM27.5391 17.016V17.368C27.5391 17.688 27.3871 17.976 27.0911 18.224C26.7871 18.48 26.4431 18.608 26.0511 18.608C25.7951 18.608 25.5871 18.544 25.4271 18.424C25.2671 18.296 25.1951 18.144 25.1951 17.952C25.1951 17.352 25.6591 17.048 26.5871 17.032L27.5391 17.016ZM29.2959 13.176V19H29.9279V13.176H29.2959Z" fill="#151618" fill-opacity="0.72"/>
</g>
<path fill-rule="evenodd" clip-rule="evenodd" d="M76.7791 17.1578L74.5916 14.9703L75.0335 14.5283L77 16.4948L78.9666 14.5283L79.4085 14.9703L77.221 17.1578L77 17.3787L76.7791 17.1578Z" fill="#151618" fill-opacity="0.48"/>
<rect x="-0.5" y="6.5" width="85" height="18" stroke="#0F2243" stroke-opacity="0.11"/>
</g>
<defs>
<clipPath id="clip0">
<path d="M0 9.51852C0 8.12758 1.12758 7 2.51852 7H81.4815C82.8724 7 84 8.12758 84 9.51852V25H0V9.51852Z" fill="white"/>
</clipPath>
<clipPath id="clip1">
<rect width="61.2963" height="12.5926" fill="white" transform="translate(4.03711 9.51855)"/>
</clipPath>
</defs>
</svg>
