<svg width="84" height="32" viewBox="0 0 84 32" fill="none" xmlns="http://www.w3.org/2000/svg">
<path fill-rule="evenodd" clip-rule="evenodd" d="M41 0V1H42V0H41ZM41 3V5H42V3H41ZM41 7V9H42V7H41ZM41 11V13H42V11H41ZM41.0238 17V17.0005H39.0714V16.0005H41V15H42V17H41.0238ZM41 19V21H42V19H41ZM41 23V25H42V23H41ZM41 27V29H42V27H41ZM41 31V32H42V31H41ZM1 17.0005H1.97619V16.0005H1V17.0005ZM3.92857 17.0005H5.88095V16.0005H3.92857V17.0005ZM7.83333 17.0005H9.78571V16.0005H7.83333V17.0005ZM11.7381 17.0005H13.6905V16.0005H11.7381V17.0005ZM15.6429 17.0005H17.5952V16.0005H15.6429V17.0005ZM19.5476 17.0005H21.5V16.0005H19.5476V17.0005ZM23.4524 17.0005H25.4048V16.0005H23.4524V17.0005ZM27.3571 17.0005H29.3095V16.0005H27.3571V17.0005ZM31.2619 17.0005H33.2143V16.0005H31.2619V17.0005ZM35.1667 17.0005H37.119V16.0005H35.1667V17.0005ZM42.9762 17.0005H44.9286V16.0005H42.9762V17.0005ZM46.881 17.0005H48.8333V16.0005H46.881V17.0005ZM50.7857 17.0005H52.7381V16.0005H50.7857V17.0005ZM54.6905 17.0005H56.6429V16.0005H54.6905V17.0005ZM58.5952 17.0005H60.5476V16.0005H58.5952V17.0005ZM62.5 17.0005H64.4524V16.0005H62.5V17.0005ZM66.4048 17.0005H68.3571V16.0005H66.4048V17.0005ZM70.3095 17.0005H72.2619V16.0005H70.3095V17.0005ZM74.2143 17.0005H76.1666V16.0005H74.2143V17.0005ZM78.119 17.0005H80.0714V16.0005H78.119V17.0005ZM82.0238 17.0005H83V16.0005H82.0238V17.0005Z" fill="#0F2243" fill-opacity="0.14"/>
</svg>
