<svg width="84" height="32" viewBox="0 0 84 32" fill="none" xmlns="http://www.w3.org/2000/svg">
<g clip-path="url(#clip0)">
<path d="M0 9.52632C0 8.13107 1.13107 7 2.52632 7H81.4737C82.8689 7 84 8.13107 84 9.52632V25H0V9.52632Z" fill="#0F2243" fill-opacity="0.05"/>
<g clip-path="url(#clip1)">
<path d="M4.432 11.716V16H4.924V12.478H4.942L7.378 16H7.882V11.716H7.39V15.202H7.372L4.948 11.716H4.432ZM10.0705 12.814C9.6025 12.814 9.2365 12.97 8.9605 13.294C8.6965 13.6 8.5645 13.984 8.5645 14.452C8.5645 14.914 8.6965 15.298 8.9605 15.598C9.2365 15.922 9.6025 16.084 10.0705 16.084C10.5325 16.084 10.9045 15.922 11.1865 15.598C11.4445 15.298 11.5765 14.914 11.5765 14.452C11.5765 13.984 11.4445 13.6 11.1805 13.294C10.9045 12.97 10.5325 12.814 10.0705 12.814ZM10.0705 13.216C10.3945 13.216 10.6525 13.342 10.8445 13.594C11.0065 13.822 11.0905 14.104 11.0905 14.452C11.0905 14.788 11.0065 15.076 10.8445 15.304C10.6525 15.556 10.3945 15.682 10.0705 15.682C9.7405 15.682 9.4825 15.556 9.3025 15.304C9.1345 15.076 9.0565 14.794 9.0565 14.452C9.0565 14.104 9.1345 13.822 9.3025 13.594C9.4825 13.342 9.7405 13.216 10.0705 13.216ZM13.5621 12.814C13.3461 12.814 13.1601 12.88 12.9981 13.012C12.8661 13.114 12.7581 13.258 12.6741 13.438V12.898H12.2001V16H12.6741V14.356C12.6741 14.068 12.7521 13.822 12.9201 13.618C13.0821 13.402 13.2861 13.3 13.5261 13.3C13.6761 13.3 13.8321 13.318 13.9881 13.366V12.886C13.8741 12.838 13.7301 12.814 13.5621 12.814ZM15.7475 12.814C15.3995 12.814 15.1055 12.976 14.8715 13.312V12.898H14.3915V16H14.8715V14.11C14.8715 13.864 14.9435 13.654 15.0875 13.486C15.2315 13.306 15.4115 13.222 15.6335 13.222C16.1075 13.222 16.3475 13.492 16.3475 14.044V16H16.8275V14.056C16.8275 13.804 16.8935 13.606 17.0375 13.45C17.1695 13.294 17.3435 13.222 17.5475 13.222C17.8115 13.222 18.0035 13.288 18.1235 13.432C18.2375 13.564 18.2975 13.768 18.2975 14.044V16H18.7775V13.966C18.7775 13.612 18.6755 13.33 18.4835 13.12C18.2795 12.916 18.0215 12.814 17.6975 12.814C17.4815 12.814 17.3015 12.862 17.1515 12.958C16.9835 13.048 16.8395 13.198 16.7195 13.402C16.5455 13.006 16.2215 12.814 15.7475 12.814ZM20.8743 12.814C20.5023 12.814 20.2083 12.886 19.9803 13.03C19.7283 13.186 19.5663 13.432 19.5003 13.756L19.9743 13.792C20.0223 13.594 20.1243 13.444 20.2863 13.348C20.4303 13.252 20.6163 13.21 20.8443 13.21C21.3843 13.21 21.6543 13.468 21.6543 13.99V14.152L20.9103 14.164C20.4423 14.17 20.0823 14.26 19.8303 14.428C19.5423 14.608 19.4043 14.872 19.4043 15.226C19.4043 15.478 19.5003 15.688 19.6923 15.85C19.8783 16.006 20.1243 16.084 20.4363 16.084C20.7243 16.084 20.9823 16.018 21.2103 15.892C21.4023 15.784 21.5643 15.646 21.6843 15.478V16H22.1343V14.008C22.1343 13.648 22.0383 13.366 21.8583 13.162C21.6423 12.928 21.3183 12.814 20.8743 12.814ZM21.6543 14.512V14.776C21.6543 15.016 21.5403 15.232 21.3183 15.418C21.0903 15.61 20.8323 15.706 20.5383 15.706C20.3463 15.706 20.1903 15.658 20.0703 15.568C19.9503 15.472 19.8963 15.358 19.8963 15.214C19.8963 14.764 20.2443 14.536 20.9403 14.524L21.6543 14.512ZM22.9719 11.632V16H23.4459V11.632H22.9719Z" fill="#151618" fill-opacity="0.72"/>
</g>
<rect x="-0.5" y="6.5" width="85" height="18" stroke="#0F2243" stroke-opacity="0.11"/>
</g>
<defs>
<clipPath id="clip0">
<path d="M0 9.52632C0 8.13107 1.13107 7 2.52632 7H81.4737C82.8689 7 84 8.13107 84 9.52632V25H0V9.52632Z" fill="white"/>
</clipPath>
<clipPath id="clip1">
<rect width="74" height="13" fill="white" transform="translate(4 10)"/>
</clipPath>
</defs>
</svg>
