<svg width="24" height="24" viewBox="0 0 24 24" fill="none" xmlns="http://www.w3.org/2000/svg">
<path fill-rule="evenodd" clip-rule="evenodd" d="M12 24C18.6274 24 24 18.6274 24 12C24 5.37258 18.6274 0 12 0C5.37258 0 0 5.37258 0 12C0 18.6274 5.37258 24 12 24Z" fill="#CCDBFF" fill-opacity="0.16"/>
<path fill-rule="evenodd" clip-rule="evenodd" d="M5.42262 18.1432C6.69781 15.8227 9.16524 14.25 12 14.25C14.8348 14.25 17.3022 15.8227 18.5774 18.1432C18.9433 17.7515 19.2747 17.3272 19.5666 16.875C17.9643 14.393 15.174 12.75 12 12.75C8.82599 12.75 6.03574 14.393 4.43337 16.875C4.72531 17.3272 5.05668 17.7515 5.42262 18.1432ZM8.25 7.5C8.25 5.42893 9.92893 3.75 12 3.75C14.0711 3.75 15.75 5.42893 15.75 7.5C15.75 9.57107 14.0711 11.25 12 11.25C9.92893 11.25 8.25 9.57107 8.25 7.5ZM12 5.25C10.7574 5.25 9.75 6.25736 9.75 7.5C9.75 8.74264 10.7574 9.75 12 9.75C13.2426 9.75 14.25 8.74264 14.25 7.5C14.25 6.25736 13.2426 5.25 12 5.25Z" fill="#3D85FF"/>
</svg>
