<svg width="16" height="16" viewBox="0 0 16 16" fill="none" xmlns="http://www.w3.org/2000/svg">
<path fill-rule="evenodd" clip-rule="evenodd" d="M7.5 0C3.35785 0 0 3.35785 0 7.5C0 11.6421 3.35785 15 7.5 15C11.6421 15 15 11.6421 15 7.5C15 3.35785 11.6421 0 7.5 0ZM1 7.5C1 3.91014 3.91014 1 7.5 1C11.0899 1 14 3.91014 14 7.5C14 11.0899 11.0899 14 7.5 14C3.91014 14 1 11.0899 1 7.5ZM5.5 6C5.5 4.89543 6.39543 4 7.5 4C8.60457 4 9.5 4.89543 9.5 6C9.5 7.10457 8.60457 8 7.5 8C7.32735 8 7.15981 7.97812 7 7.93699V8.5V8.95852V10H8V8.95852C9.41886 8.72048 10.5 7.4865 10.5 6C10.5 4.34315 9.15685 3 7.5 3C5.84315 3 4.5 4.34315 4.5 6H5.5ZM7 11V12H8V11H7Z" fill="white"/>
</svg>
