<svg width="16" height="16" viewBox="0 0 16 16" fill="none" xmlns="http://www.w3.org/2000/svg">
<path fill-rule="evenodd" clip-rule="evenodd" d="M2.50546 9.80626L0.767822 10.8095C0.819705 10.9148 0.873987 11.0188 0.930598 11.1213L1.07223 11.3666C1.13524 11.4711 1.20072 11.5739 1.2686 11.6751L3.00622 10.6718C3.91177 11.9525 5.35095 12.829 7.00001 12.9776V14.9836C7.15659 14.9939 7.31448 14.9994 7.47354 15H7.52651C7.68556 14.9994 7.84344 14.9939 8.00001 14.9836V12.9776C9.64912 12.829 11.0883 11.9524 11.9939 10.6717L13.7315 11.675C13.8015 11.5706 13.869 11.4644 13.9339 11.3565L14.0638 11.1315C14.1224 11.0257 14.1786 10.9183 14.2323 10.8094L12.4946 9.80614C12.819 9.10477 13 8.32351 13 7.49998C13 6.67641 12.819 5.89513 12.4946 5.19373L14.2322 4.19051C14.1789 4.08232 14.1231 3.9756 14.0648 3.87043L13.9327 3.64158C13.8682 3.53426 13.8011 3.42868 13.7314 3.32494L11.9938 4.32814C11.0883 3.0475 9.64909 2.17101 8.00001 2.0224V0.0164013C7.83475 0.00552434 7.66803 0 7.50002 0C7.332 0 7.16527 0.00552502 7.00001 0.0164033V2.0224C5.35098 2.17101 3.91183 3.04746 3.00627 4.32804L1.26868 3.32484C1.20115 3.42542 1.136 3.52772 1.07329 3.63167L0.929606 3.88055C0.873374 3.98241 0.819442 4.08572 0.767879 4.1904L2.5055 5.19361C2.18105 5.89504 2.00002 6.67637 2.00002 7.49998C2.00002 8.32356 2.18104 9.10486 2.50546 9.80626ZM3.00002 7.49998C3.00002 5.0147 5.01474 2.99998 7.50002 2.99998C9.9853 2.99998 12 5.0147 12 7.49998C12 9.98526 9.9853 12 7.50002 12C5.01474 12 3.00002 9.98526 3.00002 7.49998Z" fill="white"/>
</svg>
