<svg width="116" height="46" viewBox="0 0 116 46" fill="none" xmlns="http://www.w3.org/2000/svg">
<circle cx="2" cy="2" r="2" fill="#A2B2CE"/>
<circle cx="18" cy="2" r="2" fill="#A2B2CE"/>
<circle cx="34" cy="2" r="2" fill="#A2B2CE"/>
<circle cx="50" cy="2" r="2" fill="#A2B2CE"/>
<circle cx="66" cy="2" r="2" fill="#A2B2CE"/>
<circle cx="82" cy="2" r="2" fill="#A2B2CE"/>
<circle cx="98" cy="2" r="2" fill="#A2B2CE"/>
<circle cx="114" cy="2" r="2" fill="#A2B2CE"/>
<circle cx="2" cy="16" r="2" fill="#A2B2CE"/>
<circle cx="18" cy="16" r="2" fill="#A2B2CE"/>
<circle cx="34" cy="16" r="2" fill="#A2B2CE"/>
<circle cx="50" cy="16" r="2" fill="#A2B2CE"/>
<circle cx="66" cy="16" r="2" fill="#A2B2CE"/>
<circle cx="82" cy="16" r="2" fill="#A2B2CE"/>
<circle cx="98" cy="16" r="2" fill="#A2B2CE"/>
<circle cx="114" cy="16" r="2" fill="#A2B2CE"/>
<circle cx="2" cy="30" r="2" fill="#A2B2CE"/>
<circle cx="18" cy="30" r="2" fill="#A2B2CE"/>
<circle cx="34" cy="30" r="2" fill="#A2B2CE"/>
<circle cx="50" cy="30" r="2" fill="#A2B2CE"/>
<circle cx="66" cy="30" r="2" fill="#A2B2CE"/>
<circle cx="82" cy="30" r="2" fill="#A2B2CE"/>
<circle cx="98" cy="30" r="2" fill="#A2B2CE"/>
<circle cx="114" cy="30" r="2" fill="#A2B2CE"/>
<circle cx="2" cy="44" r="2" fill="#A2B2CE"/>
<circle cx="18" cy="44" r="2" fill="#A2B2CE"/>
<circle cx="34" cy="44" r="2" fill="#A2B2CE"/>
<circle cx="50" cy="44" r="2" fill="#A2B2CE"/>
<circle cx="66" cy="44" r="2" fill="#A2B2CE"/>
<circle cx="82" cy="44" r="2" fill="#A2B2CE"/>
<circle cx="98" cy="44" r="2" fill="#A2B2CE"/>
<circle cx="114" cy="44" r="2" fill="#A2B2CE"/>
</svg>
