<svg width="80" height="80" viewBox="0 0 80 80" fill="none" xmlns="http://www.w3.org/2000/svg">
<path fill-rule="evenodd" clip-rule="evenodd" d="M41.8682 26.1197C54.0541 22.0892 65.6424 29.4808 65.6424 29.4808L66.4239 68.713C66.4946 72.2608 63.5946 75.1744 59.9924 75.1744H22.3479C22.3479 75.1744 12.8146 64.1005 12.37 59.4944C10.2931 37.9719 35.6666 28.171 41.8682 26.1197Z" fill="#EDF2F5"/>
<path fill-rule="evenodd" clip-rule="evenodd" d="M33.2662 10.6525H49.5956C51.3936 10.6525 52.8556 9.1648 52.8556 7.32589C52.8556 5.48767 51.3936 4 49.5885 4H33.268C31.4621 4 30.0015 5.48767 30.0015 7.32589C30.0015 9.1648 31.461 10.6525 33.2662 10.6525ZM74.3764 13.9702H5.62141C3.61965 13.9702 2 15.4579 2 17.2965C2 19.1347 3.61965 20.6224 5.62141 20.6224H63.998V66.9112C63.998 68.1964 62.8727 69.2424 61.4918 69.2424H18.5071C17.1255 69.2424 16.0006 68.1954 16.0006 66.9112V34.6439C16.0202 33.5715 15.453 32.5722 14.5164 32.0301C13.5806 31.4884 12.4213 31.4884 11.4848 32.0301C10.5486 32.5722 9.98098 33.5715 10.001 34.6439V66.8699C10.001 71.446 14.081 75.1744 19.1023 75.1744H60.8985C65.914 75.1744 70.0001 71.446 70.0001 66.8699V20.6213H74.3697C76.3707 20.6213 78 19.1336 78 17.2954C78 15.4568 76.3779 13.9702 74.3764 13.9702Z" fill="#C3CACF"/>
<path fill-rule="evenodd" clip-rule="evenodd" d="M48.8545 51.5003V31.8388C48.8545 30.0264 47.3803 28.5589 45.56 28.5589C43.7398 28.5589 42.2655 30.0253 42.2655 31.8388V51.5003C42.2655 53.3128 43.7398 54.7802 45.56 54.7802C47.3803 54.7802 48.8473 53.3138 48.8545 51.5003Z" fill="#C3CACF"/>
<path fill-rule="evenodd" clip-rule="evenodd" d="M32.7482 51.5003V31.8388C32.7482 30.0264 31.2739 28.5589 29.4532 28.5589C27.6332 28.5589 26.1593 30.0253 26.1593 31.8388V51.5003C26.1593 53.3128 27.6332 54.7802 29.4532 54.7802C31.2739 54.7802 32.7482 53.3138 32.7482 51.5003Z" fill="#C3CACF"/>
</svg>
