<svg width="16" height="16" viewBox="0 0 16 16" fill="none" xmlns="http://www.w3.org/2000/svg">
<path fill-rule="evenodd" clip-rule="evenodd" d="M7.5 1C3.91015 1 1 3.91015 1 7.5C1 11.0899 3.91015 14 7.5 14C11.0899 14 14 11.0899 14 7.5C14 3.91015 11.0899 1 7.5 1ZM2 7.5C2 4.46243 4.46243 2 7.5 2C10.5376 2 13 4.46243 13 7.5C13 10.5376 10.5376 13 7.5 13C4.46243 13 2 10.5376 2 7.5ZM6 6.5C6 5.67157 6.67158 5 7.5 5C8.32843 5 9 5.67157 9 6.5C9 7.32843 8.32843 8 7.5 8C7.32476 8 7.15654 7.96995 7.00021 7.91472V8.5H7V9H7.5H8V8.94999C9.14112 8.71836 10 7.70948 10 6.5C10 5.11929 8.88072 4 7.5 4C6.11929 4 5 5.11929 5 6.5C5 6.67124 5.01722 6.83845 5.05001 7H6.08536C6.03008 6.84361 6 6.67532 6 6.5ZM7 11V10H8V11H7Z" fill="#151618" fill-opacity="0.48"/>
</svg>
