<svg width="32" height="32" viewBox="0 0 32 32" fill="none" xmlns="http://www.w3.org/2000/svg">
<path fill-rule="evenodd" clip-rule="evenodd" d="M16 31C24.2843 31 31 24.2843 31 16C31 13.8642 30.5536 11.8327 29.7491 9.99358L30.5049 9.2377C31.4642 11.2918 32 13.5833 32 16C32 24.8366 24.8366 32 16 32C7.16344 32 0 24.8366 0 16C0 7.16344 7.16344 0 16 0C21.13 0 25.6962 2.41434 28.6242 6.16874L28.6242 6.1687C28.8315 6.43454 29.0306 6.70709 29.2211 6.98598L15.8536 20.3535L15.5 20.7071L15.1465 20.3535L9.14648 14.3535L9.85359 13.6464L15.5 19.2929L27.9113 6.88163C25.1697 3.3057 20.8541 1 16 1C7.71573 1 1 7.71573 1 16C1 24.2843 7.71573 31 16 31Z" fill="#1F71FF"/>
</svg>
