<svg width="20" height="20" viewBox="0 0 20 20" fill="none" xmlns="http://www.w3.org/2000/svg">
<path fill-rule="evenodd" clip-rule="evenodd" d="M14.3878 2.28534C13.5417 1.57534 12.2802 1.6857 11.5702 2.53185L10.4774 3.83413C10.3709 3.96105 10.3875 4.15028 10.5144 4.25678L12.7742 6.153C13.0915 6.41925 13.1329 6.89232 12.8667 7.20963C12.6004 7.52693 12.1273 7.56832 11.81 7.30207L9.55021 5.40585C9.42329 5.29935 9.23406 5.3159 9.12756 5.44282L3.42818 12.2351C2.87186 12.8981 2.54558 13.7236 2.49832 14.5878L2.33451 17.5833C2.31631 17.9162 2.62273 18.1733 2.94735 18.0976L5.86892 17.4161C6.71177 17.2195 7.46812 16.7548 8.02444 16.0918L16.1664 6.38858C16.8764 5.54243 16.7661 4.28092 15.9199 3.57092L14.3878 2.28534ZM11 15.9998C10.4477 15.9998 9.99997 16.4475 9.99997 16.9998C9.99997 17.552 10.4477 17.9998 11 17.9998H17C17.5523 17.9998 18 17.552 18 16.9998C18 16.4475 17.5523 15.9998 17 15.9998H11Z" fill="white" fill-opacity="0.48"/>
</svg>
