<svg width="20" height="20" viewBox="0 0 20 20" fill="none" xmlns="http://www.w3.org/2000/svg">
<path fill-rule="evenodd" clip-rule="evenodd" d="M9.24404 1.87287C9.64282 1.41241 10.3571 1.41241 10.7559 1.87287L13.7632 5.34535C14.324 5.99299 13.864 7 13.0072 7H11V13C11 13.5523 10.5523 14 9.99997 14C9.44769 14 8.99997 13.5523 8.99997 13V7H6.99272C6.13597 7 5.67592 5.99299 6.23679 5.34535L9.24404 1.87287ZM4 11C4 10.4477 3.55228 10 3 10C2.44772 10 2 10.4477 2 11V17V18H3H17H18V17V11C18 10.4477 17.5523 10 17 10C16.4477 10 16 10.4477 16 11V16H4V11Z" fill="white" fill-opacity="0.48"/>
</svg>
