<svg width="84" height="32" viewBox="0 0 84 32" fill="none" xmlns="http://www.w3.org/2000/svg">
<rect width="84" height="32" rx="4" fill="#0F2243" fill-opacity="0.05"/>
<path fill-rule="evenodd" clip-rule="evenodd" d="M41.9268 6.57326L41.75 6.39648L41.5732 6.57326L39.5732 8.57326L39.9268 8.92681L41.5 7.35359V12H42V7.35359L43.5732 8.92681L43.9268 8.57326L41.9268 6.57326ZM38.5 11V12.75V13H38.75H44.75H45V12.75V11H44.5V12.5H39V11H38.5Z" fill="#1F71FF"/>
<g clip-path="url(#clip0)">
<path d="M29.328 17.464V23.92H26.448V24.48H33.568V23.92H29.92V20.496H32.888V19.936H29.92V17.464H29.328ZM35.336 20.336V24.816H35.912V19.464C36.232 18.912 36.488 18.328 36.696 17.712L36.152 17.456C35.76 18.688 35.136 19.784 34.288 20.736L34.472 21.352C34.784 21.032 35.072 20.688 35.336 20.336ZM36.8 18.488V19.048H38.224C38.144 19.352 38.056 19.664 37.96 19.976H36.448V20.528H37.784C37.6 21.064 37.4 21.584 37.192 22.08H40.616C40.248 22.56 39.752 23.016 39.12 23.456C38.656 23.232 38.176 23.024 37.68 22.832L37.376 23.28C38.4 23.664 39.408 24.192 40.384 24.864L40.712 24.368C40.36 24.136 40 23.92 39.624 23.72C40.36 23.16 40.896 22.6 41.232 22.04V21.544H37.944C38.072 21.232 38.208 20.896 38.336 20.528H41.68V19.976H38.52C38.616 19.68 38.704 19.368 38.792 19.048H41.352V18.488H38.936C39.008 18.176 39.08 17.848 39.16 17.512L38.6 17.456L38.36 18.488H36.8ZM42.64 17.784V24.816H43.2V18.304H44.312C44.128 18.976 43.88 19.72 43.56 20.552C44.024 21.256 44.264 21.888 44.264 22.456C44.264 22.624 44.216 22.744 44.136 22.808C44.048 22.872 43.88 22.912 43.64 22.928C43.552 22.928 43.448 22.912 43.32 22.896L43.512 23.48C44.024 23.472 44.384 23.376 44.592 23.2C44.736 23.04 44.808 22.792 44.816 22.456C44.784 21.856 44.544 21.192 44.112 20.464C44.4 19.688 44.656 18.936 44.864 18.216V17.784H42.64ZM45.496 20.352V24.816H46.056V19.256C46.28 18.752 46.464 18.216 46.616 17.656L46.08 17.4C45.776 18.664 45.288 19.792 44.624 20.768L44.808 21.368C45.056 21.048 45.288 20.704 45.496 20.352ZM46.512 19.184V19.744H48.352V23.8C48.352 24.088 48.232 24.24 48 24.24C47.76 24.24 47.504 24.224 47.24 24.2L47.368 24.752H48.2C48.68 24.752 48.928 24.48 48.928 23.944V19.744H49.624V19.184H48.928V17.496H48.352V19.184H46.512ZM47.048 20.624L46.576 20.848C46.88 21.424 47.16 22.08 47.424 22.808L47.912 22.568C47.64 21.864 47.352 21.216 47.048 20.624ZM52.096 17.416C51.712 18.664 51.104 19.776 50.256 20.736L50.44 21.352C50.744 21.032 51.024 20.696 51.28 20.344V24.808H51.848V19.464C52.168 18.896 52.432 18.296 52.64 17.664L52.096 17.416ZM53.44 17.944C53.264 19.008 52.936 19.912 52.448 20.648L52.816 21.128C53.112 20.712 53.36 20.24 53.56 19.712H54.92V21.64H52.568V22.192H54.92V24.768H55.496V22.192H57.632V21.64H55.496V19.712H57.336V19.152H55.496V17.488H54.92V19.152H53.744C53.856 18.8 53.944 18.416 54.008 18.016L53.44 17.944Z" fill="#151618" fill-opacity="0.48"/>
</g>
<defs>
<clipPath id="clip0">
<rect width="36" height="10" fill="white" transform="translate(24 16)"/>
</clipPath>
</defs>
</svg>
