<svg width="84" height="32" viewBox="0 0 84 32" fill="none" xmlns="http://www.w3.org/2000/svg">
<rect width="84" height="32" rx="4" fill="#0F2243" fill-opacity="0.05"/>
<path fill-rule="evenodd" clip-rule="evenodd" d="M41.4999 8.99994V11.9999H41.9999V8.99994H44.9999V8.49995H41.9999V5.5H41.4999V8.49995H38.5V8.99994H41.4999Z" fill="#151618" fill-opacity="0.48"/>
<path d="M29.328 16.6251V23.0811H26.448V23.6411H33.568V23.0811H29.92V19.6571H32.888V19.0971H29.92V16.6251H29.328ZM35.336 19.4971V23.9771H35.912V18.6251C36.232 18.0731 36.488 17.4891 36.696 16.8731L36.152 16.6171C35.76 17.8491 35.136 18.9451 34.288 19.8971L34.472 20.5131C34.784 20.1931 35.072 19.8491 35.336 19.4971ZM36.8 17.6491V18.2091H38.224C38.144 18.5131 38.056 18.8251 37.96 19.1371H36.448V19.6891H37.784C37.6 20.2251 37.4 20.7451 37.192 21.2411H40.616C40.248 21.7211 39.752 22.1771 39.12 22.6171C38.656 22.3931 38.176 22.1851 37.68 21.9931L37.376 22.4411C38.4 22.8251 39.408 23.3531 40.384 24.0251L40.712 23.5291C40.36 23.2971 40 23.0811 39.624 22.8811C40.36 22.3211 40.896 21.7611 41.232 21.2011V20.7051H37.944C38.072 20.3931 38.208 20.0571 38.336 19.6891H41.68V19.1371H38.52C38.616 18.8411 38.704 18.5291 38.792 18.2091H41.352V17.6491H38.936C39.008 17.3371 39.08 17.0091 39.16 16.6731L38.6 16.6171L38.36 17.6491H36.8ZM45.232 17.6651C44.976 18.2731 44.48 18.7931 43.752 19.2251L44.072 19.6411C44.376 19.4491 44.648 19.2411 44.888 19.0171C45.112 19.2571 45.384 19.4811 45.696 19.6891C45.136 19.9531 44.44 20.1611 43.616 20.3051L43.872 20.7691C44.784 20.5691 45.544 20.3051 46.16 19.9771C46.72 20.2891 47.384 20.5451 48.16 20.7531L48.464 20.3211C47.776 20.1611 47.168 19.9451 46.632 19.6891C47.088 19.3691 47.424 18.9931 47.648 18.5691V18.1691H45.536C45.616 18.0251 45.68 17.8811 45.744 17.7291L45.232 17.6651ZM46.16 19.4411C45.792 19.2171 45.464 18.9691 45.184 18.6971C45.2 18.6651 45.224 18.6331 45.256 18.6011H47.072C46.856 18.9211 46.552 19.2011 46.16 19.4411ZM44.576 21.5931L44.352 22.0251C45.424 22.2331 46.456 22.5291 47.448 22.9131L47.64 22.4491C46.664 22.0811 45.64 21.7931 44.576 21.5931ZM45.408 20.4731L45.144 20.8571C45.736 21.0491 46.304 21.3051 46.856 21.6411L47.128 21.2251C46.608 20.9371 46.032 20.6811 45.408 20.4731ZM49.264 16.9771H42.736V23.9611H43.296V23.6331H48.704V23.9611H49.264V16.9771ZM43.296 23.1211V17.4891H48.704V23.1211H43.296ZM52.48 19.3051H57.192V18.7531H55.392V16.6251H54.824V18.7531H52.48V16.8491H51.896V19.7851C51.88 21.5131 51.456 22.7771 50.616 23.5691L51.056 23.9531C51.736 23.3131 52.176 22.3851 52.368 21.1851H55.584V23.9771H56.16V20.6251H52.44C52.456 20.3611 52.472 20.0811 52.48 19.7851V19.3051Z" fill="#151618" fill-opacity="0.48"/>
</svg>
