<svg width="17" height="15" viewBox="0 0 17 15" fill="none" xmlns="http://www.w3.org/2000/svg">
<path fill-rule="evenodd" clip-rule="evenodd" d="M8.37513 0.625C6.71827 0.625 5.37513 1.96815 5.37513 3.625C5.37513 5.28185 6.71827 6.625 8.37513 6.625C10.032 6.625 11.3751 5.28185 11.3751 3.625C11.3751 1.96815 10.032 0.625 8.37513 0.625ZM6.37513 3.625C6.37513 2.52043 7.27056 1.625 8.37513 1.625C9.4797 1.625 10.3751 2.52043 10.3751 3.625C10.3751 4.72957 9.4797 5.625 8.37513 5.625C7.27056 5.625 6.37513 4.72957 6.37513 3.625ZM8.37525 8.125C12.1478 8.125 15.3105 10.7363 16.1543 14.25H15.1213C14.3016 11.2945 11.5918 9.125 8.37525 9.125C5.15871 9.125 2.44888 11.2945 1.6292 14.25H0.596191C1.44005 10.7363 4.6027 8.125 8.37525 8.125Z" fill="#151618" fill-opacity="0.48"/>
</svg>
