<svg width="16" height="17" viewBox="0 0 16 17" fill="none" xmlns="http://www.w3.org/2000/svg">
<path fill-rule="evenodd" clip-rule="evenodd" d="M2.7927 1.19105C4.05671 0.693104 5.84137 0.375 8 0.375C10.1527 0.375 11.937 0.662557 13.2024 1.1456C13.834 1.38672 14.362 1.68625 14.7402 2.04563C15.1217 2.40823 15.375 2.85806 15.375 3.375H15.375V13.375H15.375C15.375 13.9438 15.0182 14.4014 14.588 14.7407C14.1488 15.0871 13.551 15.3788 12.876 15.6147C11.5213 16.0883 9.74576 16.375 8 16.375C6.22822 16.375 4.45224 16.0885 3.10325 15.6145C2.43109 15.3783 1.83776 15.0862 1.40241 14.739C0.974948 14.3981 0.625 13.9408 0.625 13.375V8.375V3.375C0.625 2.87562 0.889521 2.44006 1.26317 2.09145C1.63812 1.74161 2.16218 1.43943 2.7927 1.19105ZM14.375 13.375V10.019C14.0499 10.2483 13.6571 10.4468 13.2127 10.6156C11.9502 11.0952 10.1656 11.375 8 11.375C5.82701 11.375 4.04199 11.057 2.78111 10.5588C2.72272 10.5357 2.66525 10.5121 2.60874 10.4881C2.57373 10.4959 2.53734 10.5 2.5 10.5C2.30216 10.5 2.13115 10.3851 2.05008 10.2184C1.89784 10.1346 1.75582 10.0466 1.625 9.95447V13.375C1.625 13.4995 1.70326 13.6999 2.0259 13.9572C2.34065 14.2082 2.81932 14.4548 3.43475 14.671C4.66092 15.1019 6.32243 15.375 8 15.375C9.65022 15.375 11.3122 15.102 12.546 14.6708C13.1653 14.4543 13.6495 14.2073 13.9687 13.9555C14.2969 13.6966 14.375 13.4965 14.375 13.375H14.375ZM14.375 8.375V5.01455C14.0469 5.24583 13.6499 5.44586 13.2011 5.61582C11.9354 6.09511 10.1512 6.375 8 6.375C5.84137 6.375 4.05671 6.0569 2.7927 5.55895C2.34459 5.38243 1.95026 5.17873 1.625 4.95006V8.375C1.625 8.50253 1.69108 8.69228 1.94255 8.92864C2.19314 9.16418 2.59144 9.40856 3.14862 9.62874C4.26016 10.068 5.91263 10.375 8 10.375C10.0948 10.375 11.7477 10.1024 12.8576 9.68081C13.4134 9.46968 13.8067 9.23107 14.0533 8.99388C14.2953 8.76116 14.375 8.55303 14.375 8.375H14.375ZM1.94536 3.92738C1.69101 3.69006 1.625 3.50062 1.625 3.375C1.625 3.24938 1.69101 3.05993 1.94536 2.82262C2.19842 2.58651 2.59984 2.34182 3.15922 2.12145C4.27503 1.6819 5.92786 1.375 8 1.375C10.078 1.375 11.7313 1.65441 12.8457 2.07985C13.404 2.29298 13.8014 2.53306 14.0513 2.7705C14.2977 3.00472 14.375 3.20891 14.375 3.375C14.375 3.55117 14.2951 3.75901 14.0505 3.9926C13.8014 4.23038 13.405 4.46932 12.847 4.68063C11.7328 5.10252 10.0795 5.375 8 5.375C5.92786 5.375 4.27503 5.0681 3.15922 4.62855C2.59984 4.40818 2.19842 4.16349 1.94536 3.92738ZM3 6C3 6.27614 2.77614 6.5 2.5 6.5C2.22386 6.5 2 6.27614 2 6C2 5.72386 2.22386 5.5 2.5 5.5C2.77614 5.5 3 5.72386 3 6Z" fill="#151618" fill-opacity="0.48"/>
</svg>
